<svg width="508" height="339" viewBox="0 0 508 339" fill="none" xmlns="http://www.w3.org/2000/svg">
<path d="M506.832 97.9816H457.694C457.071 97.9816 456.525 97.4365 456.525 96.8135C456.525 96.1905 457.071 95.6454 457.694 95.6454H506.832C507.455 95.6454 508.001 96.1905 508.001 96.8135C507.923 97.4365 507.455 97.9816 506.832 97.9816Z" fill="#CCC6F9"/>
<path d="M478.757 115.947H429.618C428.995 115.947 428.45 115.402 428.45 114.779C428.45 114.156 428.995 113.611 429.618 113.611H478.757C479.38 113.611 479.925 114.156 479.925 114.779C479.925 115.402 479.38 115.947 478.757 115.947Z" fill="#CCC6F9"/>
<path d="M62.5141 100.423H13.3752C12.7522 100.423 12.207 99.8778 12.207 99.2548C12.207 98.6318 12.7522 98.0867 13.3752 98.0867H62.5141C63.1371 98.0867 63.6822 98.6318 63.6822 99.2548C63.6822 99.9557 63.1371 100.423 62.5141 100.423Z" fill="#CCC6F9"/>
<path d="M96.6918 79.6718H47.5529C46.9299 79.6718 46.3848 79.1267 46.3848 78.5037C46.3848 77.8807 46.9299 77.3356 47.5529 77.3356H96.6918C97.3148 77.3356 97.86 77.8807 97.86 78.5037C97.86 79.1267 97.3927 79.6718 96.6918 79.6718Z" fill="#CCC6F9"/>
<path d="M121.535 325.778C94.9541 310.886 73.8178 286.708 60.6876 258.846C47.5575 230.985 42.2734 199.6 43.5544 168.857C44.355 151.723 46.917 134.11 42.2734 117.617C45.9563 124.663 52.5213 129.787 58.7662 134.59C90.4706 159.409 121.054 188.872 134.344 227.302C146.033 260.928 142.991 299.517 126.178 330.741" fill="#7EC178"/>
<path d="M119.772 327.219C108.724 307.043 93.1918 289.59 74.7776 276.139C65.6506 269.574 55.4027 263.81 44.1941 263.329C28.8222 262.689 15.0516 272.136 0 275.499C15.0516 298.717 32.0247 322.895 57.4843 332.983C76.6991 340.669 98.1557 339.228 118.491 336.026" fill="#5FA65A"/>
<path d="M57.9657 157.168C68.3738 174.941 70.7756 195.597 78.3014 214.492C85.9873 233.867 98.9573 251.64 110.646 268.774C110.806 268.934 110.967 268.774 110.967 268.614C98.7972 250.68 85.1867 232.105 77.5008 211.61C70.7756 193.516 68.0535 173.82 58.1259 157.007C58.1259 156.847 57.8056 157.007 57.9657 157.168Z" fill="#235160"/>
<path d="M91.5903 239.311C78.3001 229.864 61.9675 220.576 56.0429 204.564C56.0429 204.404 55.7227 204.404 55.7227 204.724C61.6472 220.897 78.1399 230.184 91.4302 239.631C91.5903 239.791 91.7504 239.471 91.5903 239.311Z" fill="#235160"/>
<path d="M91.7508 239.791C94.9533 231.465 94.7931 221.537 94.4729 212.731C94.3128 208.247 93.8324 203.924 93.352 199.44C93.0318 197.199 93.1919 191.754 91.4306 190.153C91.2704 189.993 91.1103 190.313 91.2704 190.313C93.0318 191.754 93.1919 199.761 93.5122 201.842C93.9925 206.005 94.3128 210.009 94.4729 214.172C94.633 222.498 94.633 231.625 91.7508 239.471C91.4306 239.952 91.7508 239.952 91.7508 239.791Z" fill="#235160"/>
<path d="M72.216 195.757C65.0104 191.434 59.0858 185.83 54.122 178.945C53.9619 178.784 53.8018 178.944 53.8018 179.105C58.6055 185.99 64.6901 191.594 71.8957 195.918C72.2159 196.078 72.3761 195.757 72.216 195.757Z" fill="#235160"/>
<path d="M72.2174 195.918C77.0211 188.552 75.58 177.183 74.9395 168.857C74.9395 168.697 74.6193 168.697 74.6193 168.857C75.2598 177.183 76.7009 188.392 71.8972 195.758C71.737 195.918 72.0573 196.078 72.2174 195.918Z" fill="#235160"/>
<path d="M35.0671 289.75C49.158 295.354 63.0887 300.478 75.7384 309.125C86.1465 316.331 96.3944 324.016 108.724 327.539C108.884 327.539 109.044 327.219 108.884 327.219C95.5938 323.536 84.8655 314.889 73.6568 307.364C61.8077 299.357 48.5175 294.714 35.2272 289.59C34.907 289.27 34.907 289.59 35.0671 289.75Z" fill="#235160"/>
<path d="M55.5644 281.263C63.5705 288.789 69.6552 297.756 73.8184 307.844C73.8184 308.004 74.1387 308.004 74.1387 307.684C69.9755 297.596 63.7307 288.469 55.7245 280.943C55.7245 280.943 55.4042 281.103 55.5644 281.263Z" fill="#235160"/>
<path d="M73.8152 308.004C64.3679 311.847 54.4403 313.288 44.3525 312.327C44.1924 312.327 44.1924 312.648 44.3525 312.648C54.6004 313.608 64.5281 312.167 73.9753 308.324C74.1355 308.164 73.9754 307.844 73.8152 308.004Z" fill="#235160"/>
<path d="M82.7829 294.073C85.8252 298.236 88.8676 302.4 90.9492 307.203C93.0308 311.847 93.5112 317.131 95.7529 321.775C95.913 321.935 96.0731 321.775 96.0731 321.614C93.8314 316.971 93.351 311.687 91.2694 307.043C89.1878 302.4 86.1455 298.076 83.1031 293.913C82.943 293.753 82.6228 293.913 82.7829 294.073Z" fill="#235160"/>
<path d="M95.914 321.614C89.6692 328.5 76.379 330.101 67.7323 328.82C67.5722 328.82 67.4121 329.14 67.5722 329.14C76.379 330.421 89.6692 328.98 96.0741 321.935C96.2343 321.614 96.0742 321.454 95.914 321.614Z" fill="#235160"/>
<path d="M216.154 183.347C266.664 183.347 307.611 142.401 307.611 91.8908C307.611 41.3809 266.664 0.434448 216.154 0.434448C165.644 0.434448 124.697 41.3809 124.697 91.8908C124.697 142.401 165.644 183.347 216.154 183.347Z" fill="#3F3999"/>
<path d="M289.403 109.144C298.951 68.6866 273.895 28.1482 233.437 18.5993C192.979 9.05036 152.44 34.107 142.891 74.5647C133.343 115.022 158.399 155.561 198.857 165.11C239.315 174.659 279.854 149.602 289.403 109.144Z" fill="#C2BCEE"/>
<path opacity="0.22" d="M241.502 21.0201L162.341 144.485C165.501 147.723 168.949 150.665 172.643 153.276L253.779 26.7132C249.868 24.447 245.758 22.5414 241.502 21.0201V21.0201ZM262.009 32.2319L181.144 158.485C191.38 163.884 202.726 166.84 214.295 167.122L283.793 58.6832C278.654 48.3134 271.201 39.2633 262.009 32.2319V32.2319ZM218.091 16.7407L148.612 125.179C150.808 129.628 153.435 133.85 156.455 137.785L232.866 18.619C228.016 17.4881 223.067 16.8394 218.091 16.6826V16.7407Z" fill="white"/>
<path d="M246.11 86.316C242.602 83.9558 238.396 82.8567 234.182 83.1984C236.454 80.6019 237.897 77.3851 238.326 73.9617C238.835 70.3704 238.38 66.7083 237.009 63.3503C235.908 60.468 234.166 57.8737 231.915 55.7636C229.664 53.6535 226.963 52.0828 224.016 51.1703C221.386 50.4002 218.61 50.274 215.922 50.8024C212.579 51.5508 209.302 52.5675 206.123 53.8425L202.638 44.9932L197.835 46.9296L201.321 55.7402L196.112 57.8121L192.626 48.9821L187.824 50.9186L191.31 59.7485L177.639 65.1511L207.227 139.838L220.898 134.416L223.474 140.942L228.276 139.006L225.681 132.46L229.554 130.911L230.813 130.389L233.388 136.914L238.19 134.978L235.595 128.394C240.553 126.322 243.845 124.85 245.394 124.018C248.503 122.401 251.103 119.954 252.907 116.95C254.601 113.903 255.513 110.483 255.56 106.997C255.699 103.332 255.072 99.6784 253.72 96.2691C252.252 92.2565 249.598 88.7852 246.11 86.316ZM195.763 72.2577L203.393 69.237C209.667 66.7584 213.482 65.3641 214.876 64.9962C216.895 64.3998 219.068 64.6296 220.917 65.6352C222.728 66.8154 224.091 68.5672 224.79 70.6118C225.725 72.6926 225.849 75.0473 225.139 77.2149C224.346 79.2903 222.815 81.0002 220.84 82.0172C219.639 82.6755 216.464 83.9536 211.274 86.0836L202.56 89.5304L195.763 72.2577ZM240.301 108.101C239.723 110.121 238.429 111.863 236.66 113C233.801 114.61 230.808 115.971 227.714 117.066L215.418 121.926L207.498 101.962L218.245 97.7214C224.287 95.3203 228.36 94.1197 230.464 94.1197C232.442 94.0786 234.377 94.6987 235.963 95.8818C237.65 97.2226 238.931 99.006 239.662 101.033C240.713 103.233 240.979 105.727 240.417 108.101H240.301Z" fill="#3F3999"/>
<path d="M315.351 164.156C352.222 164.156 382.112 134.266 382.112 97.3957C382.112 60.5251 352.222 30.6355 315.351 30.6355C278.48 30.6355 248.591 60.5251 248.591 97.3957C248.591 134.266 278.48 164.156 315.351 164.156Z" fill="#3F3999"/>
<path d="M368.82 109.99C375.791 80.4574 357.5 50.8657 327.967 43.8953C298.434 36.9249 268.842 55.2154 261.872 84.7482C254.902 114.281 273.192 143.873 302.725 150.843C332.258 157.814 361.85 139.523 368.82 109.99Z" fill="#C2BCEE"/>
<path opacity="0.22" d="M333.853 45.6621L276.069 135.788C278.375 138.151 280.892 140.299 283.589 142.205L342.815 49.8178C339.96 48.1636 336.96 46.7726 333.853 45.6621V45.6621ZM348.822 53.8463L289.794 146.007C297.266 149.948 305.548 152.106 313.993 152.312L364.724 73.1549C360.973 65.5853 355.533 58.979 348.822 53.8463V53.8463ZM316.764 42.5383L266.047 121.695C267.65 124.942 269.567 128.024 271.772 130.897L327.549 43.9094C324.009 43.0838 320.397 42.6103 316.764 42.4958V42.5383Z" fill="white"/>
<path d="M337.217 93.3263C334.656 91.6035 331.586 90.8011 328.51 91.0506C330.168 89.1552 331.222 86.807 331.535 84.3081C331.907 81.6865 331.575 79.0133 330.574 76.5621C329.77 74.4581 328.499 72.5643 326.856 71.024C325.212 69.4837 323.241 68.3372 321.089 67.6711C319.17 67.1089 317.143 67.0168 315.181 67.4025C312.741 67.9488 310.349 68.691 308.028 69.6217L305.484 63.162L301.978 64.5755L304.523 71.007L300.72 72.5194L298.176 66.0738L294.67 67.4873L297.215 73.9329L287.235 77.8766L308.834 132.396L318.813 128.438L320.693 133.201L324.199 131.788L322.305 127.01L325.132 125.879L326.051 125.498L327.931 130.261L331.436 128.848L329.542 124.042C333.161 122.529 335.563 121.455 336.694 120.847C338.964 119.667 340.862 117.881 342.179 115.688C343.415 113.464 344.081 110.967 344.115 108.423C344.217 105.747 343.759 103.08 342.772 100.592C341.7 97.6627 339.763 95.1287 337.217 93.3263ZM300.466 83.0642L306.035 80.8592C310.615 79.0499 313.4 78.0321 314.417 77.7636C315.891 77.3282 317.477 77.496 318.827 78.23C320.149 79.0915 321.144 80.3703 321.654 81.8628C322.337 83.3817 322.427 85.1005 321.909 86.6828C321.33 88.1978 320.213 89.4459 318.771 90.1883C317.895 90.6689 315.576 91.6018 311.788 93.1567L305.427 95.6727L300.466 83.0642ZM332.977 109.228C332.555 110.703 331.61 111.975 330.319 112.804C328.232 113.98 326.047 114.973 323.789 115.773L314.813 119.321L309.032 104.747L316.877 101.652C321.287 99.8992 324.26 99.0228 325.796 99.0228C327.24 98.9927 328.653 99.4454 329.81 100.309C331.042 101.288 331.976 102.59 332.51 104.069C333.277 105.676 333.472 107.496 333.062 109.228H332.977Z" fill="#3F3999"/>
<path d="M411.327 140.283V301.715C411.327 316.343 402.462 328.877 389.81 334.267C390.384 331.786 390.667 329.188 390.667 326.549V165.11C390.667 145.597 374.844 129.774 355.331 129.774H174.835C157.533 151.29 114.368 158.484 100.445 108.063C102.276 106.135 104.902 104.947 107.763 104.947H375.991C395.504 104.947 411.327 120.77 411.327 140.283Z" fill="#3F3999"/>
<path d="M314.086 206.216H390.667V165.11C390.667 145.597 374.843 129.774 355.33 129.774H174.835C158.908 129.774 114.589 132.855 100.445 108.063C98.6826 109.874 97.584 112.375 97.584 115.118V326.141C97.584 332.166 102.49 337.079 108.522 337.079H375.99C380.896 337.079 385.567 336.077 389.81 334.267C390.383 331.786 390.667 329.188 390.667 326.549V250.604H314.086C307.964 250.604 302.409 248.123 298.38 244.102C294.38 240.073 291.899 234.546 291.899 228.403C291.899 216.152 301.814 206.216 314.086 206.216Z" fill="#CCC6F9"/>
<path d="M411.327 202.552V258.058H307.743C299.459 258.058 291.948 254.963 286.503 249.926C281.086 244.888 277.734 237.979 277.734 230.295C277.734 214.983 291.139 202.559 307.743 202.559H411.327V202.552Z" fill="#3F3999"/>
<path d="M315.766 229.878C315.766 234.487 312.028 238.225 307.419 238.225C302.81 238.225 299.072 234.487 299.072 229.878C299.072 225.269 302.81 221.531 307.419 221.531C312.028 221.531 315.766 225.269 315.766 229.878Z" fill="#CCC6F9"/>
<path d="M431.502 279.322C431.502 279.322 380.845 256.751 380.845 228.929V177.937L383.345 177.66C403.349 175.587 420.852 163.565 429.881 145.692L435.947 153.753C444.977 165.776 458.266 173.883 473.13 176.416L482.159 177.937V228.929C482.159 256.751 459.192 266.24 431.502 279.322Z" fill="#7EC178"/>
<path d="M425.037 248.846L402.357 226.166L412.15 216.374L425.037 229.261L456.677 197.574L466.516 207.367L425.037 248.846Z" fill="white"/>
</svg>
