<?xml version="1.0"?>
<svg xmlns="http://www.w3.org/2000/svg" height="512px" viewBox="0 -22 512.002 512" width="512px"><path d="m491.882812 236.84375h-4.230468l-51.21875-108.109375c5.792968-5.066406 9.460937-12.5 9.460937-20.78125 0-15.21875-12.382812-27.605469-27.605469-27.605469-11.785156 0-21.863281 7.425782-25.816406 17.84375-8.792968-1.132812-17.535156-2.875-26.070312-5.214844l-74.15625-20.339843c.605468-12.34375-4.960938-23.847657-14.523438-31.121094v-23.851563c0-9.738281-7.921875-17.664062-17.660156-17.664062h-9.113281c-9.738281 0-17.664063 7.925781-17.664063 17.664062v23.851563c-9.597656 7.300781-15.207031 18.894531-14.503906 31.386719l-73.183594 20.074218c-8.535156 2.339844-17.277344 4.082032-26.070312 5.210938-3.953125-10.414062-14.03125-17.839844-25.816406-17.839844-15.222657 0-27.605469 12.382813-27.605469 27.605469 0 8.28125 3.667969 15.714844 9.460937 20.78125l-51.21875 108.109375h-4.230468c-11.09375 0-20.117188 9.023438-20.117188 20.117188v4.90625c0 11.085937 9.015625 20.105468 20.097656 20.113281 7.4375 32.480469 36.695313 56.230469 70.589844 56.230469s63.152344-23.75 70.589844-56.230469h6.027344c11.089843 0 20.113281-9.023438 20.113281-20.113281v-4.90625c0-11.09375-9.023438-20.117188-20.113281-20.117188h-4.234376l-51.214843-108.113281c4.550781-3.976563 7.785156-9.417969 8.964843-15.585938 9.695313-1.21875 19.335938-3.121093 28.746094-5.703125l73.117188-20.054687c2.535156 5 6.175781 9.351562 10.605468 12.71875v292.394531h-34.554687c-11.09375 0-20.117187 9.023438-20.117187 20.113281v10.359375c-9.394532 1.6875-16.554688 9.90625-16.554688 19.78125v4.90625c0 11.089844 9.023438 20.113282 20.117188 20.113282h55.824218c4.144532 0 7.5-3.355469 7.5-7.5 0-4.140626-3.355468-7.5-7.5-7.5h-55.824218c-2.773438 0-5.113282-2.339844-5.113282-5.113282v-4.90625c0-2.773437 2.339844-5.117187 5.113282-5.117187h147.1875c2.773437 0 5.117187 2.34375 5.117187 5.117187v4.90625c0 2.773438-2.34375 5.113282-5.117187 5.113282h-56.359376c-4.144531 0-7.5 3.359374-7.5 7.5 0 4.144531 3.355469 7.5 7.5 7.5h56.359376c11.09375 0 20.117187-9.023438 20.117187-20.113282v-4.90625c0-10.0625-7.433594-18.398437-17.089844-19.863281v-10.273437c0-11.09375-9.023437-20.117188-20.117187-20.117188h-34.550782v-115.585938c0-4.140624-3.359374-7.5-7.503906-7.5-4.140625 0-7.5 3.359376-7.5 7.5v115.585938h-14.4375v-285.617188c4.625.921876 9.515625.984376 14.4375 0v135.027344c0 4.144532 3.359375 7.5 7.5 7.5 4.144532 0 7.503906-3.355468 7.503906-7.5v-141.804687c4.496094-3.421875 8.183594-7.851563 10.726563-12.953125l73.984375 20.292968c9.40625 2.578126 19.050781 4.484376 28.746094 5.703126 1.179687 6.164062 4.414062 11.605468 8.964844 15.585937l-51.21875 108.109375h-4.230469c-11.09375 0-20.117188 9.023438-20.117188 20.117188v4.90625c0 11.09375 9.023438 20.117187 20.117188 20.117187h6.023437c7.441406 32.476563 36.695313 56.226563 70.589844 56.226563s63.152344-23.75 70.589844-56.230469c11.085937-.007813 20.101562-9.027344 20.101562-20.113281v-4.90625c-.003906-11.09375-9.027344-20.117188-20.121094-20.117188zm-398.171874-141.492188c6.949218 0 12.601562 5.652344 12.601562 12.601563 0 7.117187-5.878906 12.605469-12.601562 12.605469-6.699219 0-12.605469-5.457032-12.605469-12.605469 0-6.949219 5.65625-12.601563 12.605469-12.601563zm-3.023438 227.855469c-25.695312 0-48.03125-17.210937-55.09375-41.226562h110.191406c-7.066406 24.015625-29.402344 41.226562-55.097656 41.226562zm81.730469-66.246093v4.90625c0 2.773437-2.34375 5.113281-5.113281 5.113281-4.316407 0-137.808594 0-147.1875 0-2.773438 0-5.117188-2.339844-5.117188-5.113281v-4.90625c0-2.773438 2.34375-5.117188 5.117188-5.117188h147.1875c2.769531 0 5.113281 2.34375 5.113281 5.117188zm-25.945313-20.117188h-105.523437l48.167969-101.675781c3.207031.542969 6.347656.480469 9.1875 0zm165.804688 170.65625c2.773437 0 5.113281 2.34375 5.113281 5.117188v10.019531h-123.773437v-10.019531c0-2.773438 2.34375-5.117188 5.113281-5.117188zm-56.773438-314.902344c-11.945312 0-21.785156-9.730468-21.785156-21.789062 0-12.050782 9.835938-21.785156 21.785156-21.785156 22.25 0 30.132813 29.710937 10.726563 40.738281-3.394531 1.925781-7.125 2.835937-10.726563 2.835937zm-7.21875-74.933594c0-1.46875 1.195313-2.664062 2.664063-2.664062h9.109375c1.46875 0 2.664062 1.195312 2.664062 2.664062v17.074219c-4.765625-.949219-9.667968-.953125-14.4375 0zm170.003906 77.6875c6.949219 0 12.605469 5.652344 12.605469 12.601563 0 7.109375-5.871093 12.605469-12.605469 12.605469-6.765624 0-12.601562-5.527344-12.601562-12.605469 0-6.949219 5.652344-12.601563 12.601562-12.601563zm-4.59375 39.816407c3.207032.542969 6.347657.480469 9.1875 0l48.167969 101.675781h-105.523437zm7.617188 188.039062c-25.695312 0-48.03125-17.210937-55.097656-41.226562h110.191406c-7.0625 24.015625-29.398438 41.226562-55.09375 41.226562zm75.6875-61.339843c0 2.773437-2.34375 5.113281-5.117188 5.113281-4.597656 0-136.4375 0-147.1875 0-2.769531 0-5.113281-2.339844-5.113281-5.113281v-4.90625c0-2.773438 2.34375-5.117188 5.113281-5.117188h147.1875c2.773438 0 5.117188 2.34375 5.117188 5.117188zm0 0" fill="#444444"/></svg>
