<?xml version="1.0"?>
<svg xmlns="http://www.w3.org/2000/svg" id="Capa_1" enable-background="new 0 0 512 512" height="512px" viewBox="0 0 512 512" width="512px"><g><g><path d="m500.28 156.333c-1.299-3.937-5.541-6.076-9.483-4.777-3.938 1.299-6.076 5.545-4.777 9.483 10.224 30.98 13.182 63.823 8.759 96.019-11.74-40.586-30.514-78.234-55.929-112.221l27.171-27.171c2.514 4.146 4.901 8.386 7.113 12.673 1.334 2.584 3.959 4.067 6.678 4.067 1.16 0 2.336-.269 3.437-.837 3.686-1.901 5.132-6.43 3.23-10.116-2.928-5.676-6.143-11.272-9.552-16.694l2.54-2.54c3.309-3.309 5.132-7.708 5.132-12.389s-1.822-9.08-5.131-12.389l-47.168-47.168c-3.309-3.309-7.709-5.131-12.389-5.131-4.679 0-9.079 1.822-12.388 5.131l-2.532 2.532c-50.963-32.012-113.475-42.599-172.531-29.02-4.903 1.128-8.329 5.426-8.332 10.452-.002 5.025 3.419 9.325 8.32 10.458 45.084 10.42 86.669 29.558 123.735 56.917l-8.484 8.484c-6.606 6.606-6.804 17.206-.633 24.076l-46.482 46.482v-7.138c0-9.66-7.86-17.52-17.52-17.52h-154.953c-9.66 0-17.52 7.86-17.52 17.52v30.813h-1.378c-18.88 0-34.24 15.36-34.24 34.24v167.697l-65.237 65.239c-6.141 6.14-9.523 14.304-9.523 22.988s3.382 16.847 9.522 22.987l2.525 2.526c6.141 6.141 14.305 9.523 22.989 9.523s16.848-3.382 22.988-9.523l17.421-17.421c3.173 15.622 17.012 27.415 33.555 27.415h51.406c4.147 0 7.509-3.362 7.509-7.509s-3.361-7.509-7.509-7.509h-51.406c-10.6 0-19.223-8.623-19.223-19.223v-257.189c0-10.599 8.623-19.223 19.223-19.223h257.191c10.599 0 19.222 8.623 19.222 19.223v257.19c0 10.599-8.623 19.223-19.222 19.223h-168.146c-4.147 0-7.509 3.362-7.509 7.509s3.361 7.509 7.509 7.509h168.146c18.88 0 34.239-15.36 34.239-34.24v-257.191c0-16.543-11.793-30.382-27.414-33.555l22.34-22.34c3.318 2.98 7.497 4.49 11.688 4.49 4.487 0 8.973-1.708 12.389-5.124l8.469-8.469c27.36 37.076 46.518 78.659 56.932 123.721 1.132 4.899 5.43 8.32 10.452 8.32h.005c5.026-.002 9.324-3.428 10.453-8.332 9.376-40.77 7.413-83.284-5.677-122.948zm-452.662 335.055c-3.304 3.304-7.696 5.124-12.369 5.124s-9.066-1.82-12.37-5.124l-2.526-2.526c-3.304-3.304-5.123-7.697-5.123-12.369 0-4.673 1.819-9.066 5.124-12.37l54.619-54.619v54.529zm207.087-474.418c48.274-6.585 97.767 3.556 139.371 28.75l-27.169 27.169c-33.97-25.41-71.608-44.176-112.202-55.919zm102.947 109.855 27.264 27.264-32.241 32.24h-52.091v-2.437zm-232.044 28.691c0-1.38 1.122-2.503 2.503-2.503h154.954c1.38 0 2.503 1.123 2.503 2.503v30.813h-64.044c3.611-1.707 6.116-5.373 6.116-9.632 0-5.888-4.773-10.66-10.66-10.66-5.888 0-10.66 4.773-10.66 10.66 0 4.26 2.504 7.925 6.116 9.632h-24.297c3.611-1.707 6.116-5.373 6.116-9.632 0-5.888-4.773-10.66-10.66-10.66s-10.66 4.773-10.66 10.66c0 4.26 2.504 7.925 6.116 9.632h-24.297c3.611-1.707 6.116-5.373 6.116-9.632 0-5.888-4.773-10.66-10.66-10.66-5.888 0-10.66 4.773-10.66 10.66 0 4.26 2.504 7.925 6.116 9.632h-20.054v-30.813zm283.419-2.093c-.976.976-2.563.976-3.539 0l-4.637-4.637c-.002-.002-.003-.003-.005-.005s-.003-.003-.005-.005l-42.521-42.521c-.638-.638-.733-1.383-.733-1.77s.095-1.132.733-1.77l52.96-52.959c.006-.006.011-.011.017-.017l6.845-6.845c.488-.488 1.128-.732 1.77-.732.64 0 1.281.244 1.769.732l47.168 47.168c.638.638.733 1.383.733 1.77s-.095 1.132-.733 1.77z" data-original="#000000" class="active-path" data-old_color="#000000" fill="#1C18BF"/><ellipse cx="118.1" cy="230.398" rx="10.66" ry="10.66" transform="matrix(.924 -.383 .383 .924 -79.18 62.733)" data-original="#000000" class="active-path" data-old_color="#000000" fill="#1C18BF"/><ellipse cx="356.576" cy="230.398" rx="10.66" ry="10.66" transform="matrix(.924 -.383 .383 .924 -61.027 153.993)" data-original="#000000" class="active-path" data-old_color="#000000" fill="#1C18BF"/><ellipse cx="118.1" cy="467.087" rx="10.66" ry="10.66" transform="matrix(.924 -.383 .383 .924 -169.756 80.749)" data-original="#000000" class="active-path" data-old_color="#000000" fill="#1C18BF"/><ellipse cx="356.576" cy="467.087" rx="10.66" ry="10.66" transform="matrix(.924 -.383 .383 .924 -151.603 172.01)" data-original="#000000" class="active-path" data-old_color="#000000" fill="#1C18BF"/><path d="m140.647 446.887c1.467 1.466 3.389 2.199 5.31 2.199s3.843-.733 5.31-2.199l8.921-8.921c20.763 18.171 47.926 29.2 77.62 29.2 29.919 0 57.268-11.199 78.09-29.617l9.338 9.338c1.467 1.466 3.388 2.199 5.31 2.199 1.921 0 3.843-.733 5.31-2.199 2.932-2.932 2.932-7.687 0-10.619l-9.358-9.358c18.237-20.779 29.311-47.991 29.311-77.745 0-29.694-11.029-56.858-29.2-77.62l9.247-9.247c2.932-2.932 2.932-7.686 0-10.619-2.933-2.932-7.687-2.932-10.62 0l-9.213 9.213c-20.837-18.484-48.236-29.728-78.215-29.728-9.031 0-18.03 1.025-26.75 3.047-4.04.937-6.555 4.971-5.619 9.011.938 4.04 4.972 6.556 9.011 5.618 7.608-1.764 15.467-2.659 23.358-2.659 25.839 0 49.483 9.568 67.583 25.343l-15.1 15.1c-14.207-11.941-32.515-19.153-52.483-19.153-19.742 0-37.87 7.041-52.008 18.741l-15.114-15.114c4.505-3.893 9.367-7.425 14.566-10.517 3.565-2.12 4.736-6.727 2.616-10.292-2.121-3.565-6.73-4.736-10.291-2.616-6.242 3.712-12.111 7.998-17.547 12.768l-8.763-8.763c-2.932-2.933-7.686-2.933-10.62 0-2.932 2.932-2.932 7.686 0 10.619l8.743 8.743c-5.15 5.823-9.74 12.148-13.664 18.897-10.414 17.914-15.92 38.394-15.92 59.227 0 29.979 11.244 57.378 29.728 78.215l-8.888 8.888c-2.931 2.933-2.931 7.688.001 10.62zm97.161 5.262c-25.553 0-48.959-9.358-66.98-24.823l15.101-15.101c14.119 11.636 32.197 18.634 51.879 18.634 19.908 0 38.168-7.166 52.356-19.043l15.101 15.101c-18.082 15.71-41.678 25.232-67.457 25.232zm-36.425-129.115c-5.299 7.365-8.432 16.386-8.432 26.131 0 9.806 3.171 18.88 8.53 26.269l-15.551 15.551c-9.246-11.447-14.799-25.994-14.799-41.821 0-15.766 5.512-30.262 14.695-41.688zm88.797-15.061c8.946 11.349 14.304 25.652 14.304 41.192 0 15.6-5.399 29.954-14.408 41.324l-15.573-15.573c5.134-7.294 8.161-16.173 8.161-25.751 0-9.517-2.988-18.345-8.063-25.613zm-77.985 77.986c7.268 5.075 16.096 8.063 25.613 8.063 9.745 0 18.767-3.133 26.131-8.432l15.557 15.557c-11.427 9.182-25.922 14.694-41.688 14.694-15.539 0-29.842-5.358-41.192-14.304zm10.868-10.868 15.189-15.189 14.865 14.865c-4.479 2.688-9.715 4.238-15.308 4.238-5.362 0-10.393-1.429-14.746-3.914zm44.585-25.926c0 5.423-1.461 10.508-4 14.895l-14.777-14.777 14.863-14.863c2.485 4.353 3.914 9.384 3.914 14.745zm-29.397-10.501-15.338-15.338c4.387-2.539 9.472-4 14.895-4 5.654 0 10.947 1.581 15.458 4.324zm-10.619 10.619-15.34 15.34c-2.743-4.511-4.324-9.803-4.324-15.458 0-5.593 1.55-10.829 4.238-15.308zm113.16-.118c0 25.613-9.402 49.07-24.932 67.108l-15.1-15.1c11.701-14.138 18.741-32.266 18.741-52.008 0-19.682-6.998-37.76-18.634-51.879l15.101-15.101c15.465 18.021 24.824 41.427 24.824 66.98zm-102.984-66.677c15.826 0 30.374 5.553 41.82 14.798l-15.551 15.551c-7.39-5.359-16.464-8.53-26.269-8.53-9.578 0-18.457 3.027-25.751 8.161l-15.573-15.573c11.37-9.007 25.724-14.407 41.324-14.407zm-102.984 66.677c0-24.998 9.248-48.94 25.24-67.45l15.094 15.094c-11.877 14.189-19.043 32.449-19.043 52.357 0 19.968 7.212 38.276 19.153 52.483l-15.1 15.1c-15.776-18.101-25.344-41.745-25.344-67.584z" data-original="#000000" class="active-path" data-old_color="#000000" fill="#1C18BF"/></g></g> </svg>
