<?xml version="1.0" encoding="UTF-8"?> <svg xmlns="http://www.w3.org/2000/svg" width="389" height="246" viewBox="0 0 389 246" fill="none"> <g style="mix-blend-mode:multiply"> <path d="M288.629 191.038C286.631 191.043 284.668 190.518 282.939 189.518L253.089 172.288C252.151 171.756 251.371 170.985 250.828 170.053C250.286 169.121 250 168.062 250 166.983C250 165.905 250.286 164.846 250.828 163.914C251.371 162.982 252.151 162.211 253.089 161.678L282.939 144.478C284.669 143.485 286.629 142.963 288.624 142.963C290.619 142.963 292.579 143.485 294.309 144.478L324.159 161.678C325.09 162.212 325.863 162.981 326.401 163.909C326.939 164.837 327.223 165.891 327.223 166.963C327.223 168.036 326.939 169.09 326.401 170.018C325.863 170.946 325.09 171.715 324.159 172.248L294.309 189.518C292.583 190.518 290.623 191.043 288.629 191.038ZM283.289 188.918C284.913 189.855 286.754 190.348 288.629 190.348C290.503 190.348 292.345 189.855 293.969 188.918L323.819 171.678C324.641 171.204 325.324 170.521 325.799 169.698C326.274 168.876 326.524 167.943 326.524 166.993C326.524 166.044 326.274 165.111 325.799 164.289C325.324 163.466 324.641 162.783 323.819 162.308L293.969 145.078C292.344 144.145 290.503 143.654 288.629 143.654C286.755 143.654 284.914 144.145 283.289 145.078L253.439 162.318C252.616 162.792 251.933 163.474 251.458 164.295C250.983 165.117 250.733 166.049 250.733 166.998C250.733 167.948 250.983 168.88 251.458 169.701C251.933 170.523 252.616 171.205 253.439 171.678L283.289 188.918Z" fill="#CCCCCC"></path> </g> <path opacity="0.4" d="M318.758 150.079V153.349L294.738 167.019L286.938 162.519V159.239L310.968 145.579L318.758 150.079Z" fill="url(#paint0_linear)"></path> <path opacity="0.4" d="M257.659 150.079V153.349L281.679 167.019L289.479 162.519V159.239L265.459 145.579L257.659 150.079Z" fill="url(#paint1_linear)"></path> <g filter="url(#filter0_d)"> <path d="M280.099 159.679L285.339 156.679C286.206 156.18 287.188 155.918 288.189 155.918C289.189 155.918 290.171 156.18 291.039 156.679L296.279 159.679H308.739V168.219C308.741 168.638 308.632 169.051 308.423 169.414C308.214 169.778 307.912 170.08 307.549 170.289L291.039 179.799C290.167 180.304 289.177 180.571 288.169 180.571C287.161 180.571 286.171 180.304 285.299 179.799L268.839 170.299C268.473 170.091 268.17 169.79 267.961 169.426C267.752 169.062 267.644 168.648 267.649 168.229V159.679H280.099Z" fill="url(#paint2_linear)"></path> </g> <path d="M280.099 159.679L285.339 156.679C286.206 156.18 287.188 155.918 288.189 155.918C289.189 155.918 290.171 156.18 291.039 156.679L296.279 159.679H308.739V160.229C308.741 160.648 308.632 161.061 308.423 161.424C308.214 161.788 307.912 162.09 307.549 162.299L291.039 171.809C290.167 172.314 289.177 172.581 288.169 172.581C287.161 172.581 286.171 172.314 285.299 171.809L268.839 162.309C268.473 162.101 268.17 161.8 267.961 161.436C267.752 161.072 267.644 160.658 267.649 160.239V159.679H280.099Z" fill="url(#paint3_linear)"></path> <path d="M285.339 170.809L268.879 161.309C268.516 161.1 268.214 160.799 268.003 160.437C267.793 160.074 267.683 159.663 267.683 159.244C267.683 158.824 267.793 158.413 268.003 158.05C268.214 157.688 268.516 157.387 268.879 157.179L285.339 147.679C286.206 147.18 287.189 146.918 288.189 146.918C289.189 146.918 290.172 147.18 291.039 147.679L307.509 157.179C307.87 157.389 308.17 157.69 308.378 158.053C308.586 158.415 308.696 158.826 308.696 159.244C308.696 159.661 308.586 160.072 308.378 160.434C308.17 160.797 307.87 161.098 307.509 161.309L291.039 170.809C290.172 171.307 289.189 171.569 288.189 171.569C287.189 171.569 286.206 171.307 285.339 170.809Z" fill="url(#paint4_linear)"></path> <path d="M280.959 174.969L273.169 170.469V167.199L280.959 171.699V174.969Z" fill="#00FFFF"></path> <path d="M295.459 174.969L303.259 170.469V167.199L295.459 171.699V174.969Z" fill="#00FFFF"></path> <path d="M280.959 171.699V174.969L261.359 186.279L253.569 181.779V178.509L273.169 167.199L280.959 171.699Z" fill="url(#paint5_linear)"></path> <path d="M295.459 171.699V174.969L315.059 186.279L322.849 181.779V178.509L303.259 167.199L295.459 171.699Z" fill="url(#paint6_linear)"></path> <path opacity="0.3" d="M283.119 182.939L253.269 165.679C252.385 165.177 251.65 164.45 251.139 163.571C250.628 162.693 250.358 161.695 250.358 160.679C250.358 159.662 250.628 158.664 251.139 157.786C251.65 156.908 252.385 156.18 253.269 155.679L283.119 138.499C284.791 137.533 286.688 137.025 288.619 137.025C290.55 137.025 292.447 137.533 294.119 138.499L324.039 155.739C324.923 156.24 325.658 156.968 326.169 157.846C326.68 158.724 326.949 159.722 326.949 160.739C326.949 161.755 326.68 162.753 326.169 163.631C325.658 164.51 324.923 165.237 324.039 165.739L294.139 182.939C292.464 183.908 290.564 184.418 288.629 184.418C286.694 184.418 284.794 183.908 283.119 182.939Z" stroke="#4CEAF5" stroke-width="0.69" stroke-miterlimit="10"></path> <g style="mix-blend-mode:multiply"> <path d="M228.629 228.038C226.631 228.043 224.668 227.518 222.939 226.518L193.089 209.288C192.151 208.756 191.371 207.985 190.828 207.053C190.286 206.121 190 205.062 190 203.983C190 202.905 190.286 201.846 190.828 200.914C191.371 199.982 192.151 199.211 193.089 198.678L222.939 181.478C224.669 180.485 226.629 179.963 228.624 179.963C230.619 179.963 232.579 180.485 234.309 181.478L264.159 198.678C265.09 199.212 265.863 199.981 266.401 200.909C266.939 201.837 267.223 202.891 267.223 203.963C267.223 205.036 266.939 206.09 266.401 207.018C265.863 207.946 265.09 208.715 264.159 209.248L234.309 226.518C232.583 227.518 230.623 228.043 228.629 228.038ZM223.289 225.918C224.913 226.855 226.754 227.348 228.629 227.348C230.503 227.348 232.345 226.855 233.969 225.918L263.819 208.678C264.641 208.204 265.324 207.521 265.799 206.698C266.274 205.876 266.524 204.943 266.524 203.993C266.524 203.044 266.274 202.111 265.799 201.289C265.324 200.466 264.641 199.783 263.819 199.308L233.969 182.078C232.344 181.145 230.503 180.654 228.629 180.654C226.755 180.654 224.914 181.145 223.289 182.078L193.439 199.318C192.616 199.792 191.933 200.474 191.458 201.295C190.983 202.117 190.733 203.049 190.733 203.998C190.733 204.948 190.983 205.88 191.458 206.701C191.933 207.523 192.616 208.205 193.439 208.678L223.289 225.918Z" fill="#CCCCCC"></path> </g> <path d="M258.758 187.079V190.349L234.738 204.019L226.938 199.519V196.239L250.968 182.579L258.758 187.079Z" fill="url(#paint7_linear)"></path> <path d="M197.659 187.079V190.349L221.679 204.019L229.479 199.519V196.239L205.459 182.579L197.659 187.079Z" fill="url(#paint8_linear)"></path> <g filter="url(#filter1_d)"> <path d="M220.099 196.679L225.339 193.679C226.206 193.18 227.188 192.918 228.189 192.918C229.189 192.918 230.171 193.18 231.039 193.679L236.279 196.679H248.739V205.219C248.741 205.638 248.632 206.051 248.423 206.414C248.214 206.778 247.912 207.08 247.549 207.289L231.039 216.799C230.167 217.304 229.177 217.571 228.169 217.571C227.161 217.571 226.171 217.304 225.299 216.799L208.839 207.299C208.473 207.091 208.17 206.79 207.961 206.426C207.752 206.062 207.644 205.648 207.649 205.229V196.679H220.099Z" fill="url(#paint9_linear)"></path> </g> <path d="M220.099 196.679L225.339 193.679C226.206 193.18 227.188 192.918 228.189 192.918C229.189 192.918 230.171 193.18 231.039 193.679L236.279 196.679H248.739V197.229C248.741 197.648 248.632 198.061 248.423 198.424C248.214 198.788 247.912 199.09 247.549 199.299L231.039 208.809C230.167 209.314 229.177 209.581 228.169 209.581C227.161 209.581 226.171 209.314 225.299 208.809L208.839 199.309C208.473 199.101 208.17 198.8 207.961 198.436C207.752 198.072 207.644 197.658 207.649 197.239V196.679H220.099Z" fill="url(#paint10_linear)"></path> <path d="M225.339 207.809L208.879 198.309C208.516 198.1 208.214 197.799 208.003 197.437C207.793 197.074 207.683 196.663 207.683 196.244C207.683 195.824 207.793 195.413 208.003 195.05C208.214 194.688 208.516 194.387 208.879 194.179L225.339 184.679C226.206 184.18 227.189 183.918 228.189 183.918C229.189 183.918 230.172 184.18 231.039 184.679L247.509 194.179C247.87 194.389 248.17 194.69 248.378 195.053C248.586 195.415 248.696 195.826 248.696 196.244C248.696 196.661 248.586 197.072 248.378 197.434C248.17 197.797 247.87 198.098 247.509 198.309L231.039 207.809C230.172 208.307 229.189 208.569 228.189 208.569C227.189 208.569 226.206 208.307 225.339 207.809Z" fill="url(#paint11_linear)"></path> <path d="M220.959 211.969L213.169 207.469V204.199L220.959 208.699V211.969Z" fill="#00FFFF"></path> <path d="M235.459 211.969L243.259 207.469V204.199L235.459 208.699V211.969Z" fill="#00FFFF"></path> <path d="M220.959 208.699V211.969L201.359 223.279L193.569 218.779V215.509L213.169 204.199L220.959 208.699Z" fill="url(#paint12_linear)"></path> <path d="M235.459 208.699V211.969L255.059 223.279L262.849 218.779V215.509L243.259 204.199L235.459 208.699Z" fill="url(#paint13_linear)"></path> <path opacity="0.3" d="M223.119 219.939L193.269 202.679C192.385 202.177 191.65 201.45 191.139 200.571C190.628 199.693 190.358 198.695 190.358 197.679C190.358 196.662 190.628 195.664 191.139 194.786C191.65 193.908 192.385 193.18 193.269 192.679L223.119 175.499C224.791 174.533 226.688 174.025 228.619 174.025C230.55 174.025 232.447 174.533 234.119 175.499L264.039 192.739C264.923 193.24 265.658 193.968 266.169 194.846C266.68 195.724 266.949 196.722 266.949 197.739C266.949 198.755 266.68 199.753 266.169 200.631C265.658 201.51 264.923 202.237 264.039 202.739L234.139 219.939C232.464 220.908 230.564 221.418 228.629 221.418C226.694 221.418 224.794 220.908 223.119 219.939Z" stroke="#4CEAF5" stroke-width="0.69" stroke-miterlimit="10"></path> <path opacity="0.2" d="M258.759 168.525V171.795L234.739 185.465L226.939 180.965V177.685L250.969 164.025L258.759 168.525Z" fill="url(#paint14_linear)"></path> <path opacity="0.2" d="M197.659 168.525V171.795L221.679 185.465L229.479 180.965V177.685L205.459 164.025L197.659 168.525Z" fill="url(#paint15_linear)"></path> <g filter="url(#filter2_d)"> <path d="M220.1 178.125L225.34 175.125C226.207 174.627 227.189 174.364 228.19 174.364C229.19 174.364 230.172 174.627 231.04 175.125L236.28 178.125H248.74V186.665C248.742 187.084 248.633 187.497 248.424 187.861C248.215 188.224 247.913 188.526 247.55 188.735L231.04 198.245C230.168 198.751 229.178 199.017 228.17 199.017C227.162 199.017 226.171 198.751 225.3 198.245L208.84 188.745C208.474 188.538 208.171 188.236 207.962 187.872C207.753 187.508 207.645 187.095 207.65 186.675V178.125H220.1Z" fill="url(#paint16_linear)"></path> </g> <path d="M220.1 178.125L225.34 175.125C226.207 174.627 227.189 174.364 228.19 174.364C229.19 174.364 230.172 174.627 231.04 175.125L236.28 178.125H248.74V178.675C248.742 179.094 248.633 179.507 248.424 179.871C248.215 180.234 247.913 180.536 247.55 180.745L231.04 190.255C230.168 190.761 229.178 191.027 228.17 191.027C227.162 191.027 226.171 190.761 225.3 190.255L208.84 180.755C208.474 180.548 208.171 180.246 207.962 179.882C207.753 179.518 207.645 179.105 207.65 178.685V178.125H220.1Z" fill="url(#paint17_linear)"></path> <path d="M225.339 189.255L208.879 179.755C208.516 179.546 208.214 179.246 208.003 178.883C207.793 178.521 207.683 178.109 207.683 177.69C207.683 177.271 207.793 176.859 208.003 176.496C208.214 176.134 208.516 175.833 208.879 175.625L225.339 166.125C226.206 165.627 227.189 165.364 228.189 165.364C229.189 165.364 230.172 165.627 231.039 166.125L247.509 175.625C247.87 175.835 248.17 176.137 248.378 176.499C248.586 176.861 248.696 177.272 248.696 177.69C248.696 178.108 248.586 178.518 248.378 178.881C248.17 179.243 247.87 179.544 247.509 179.755L231.039 189.255C230.172 189.753 229.189 190.015 228.189 190.015C227.189 190.015 226.206 189.753 225.339 189.255Z" fill="url(#paint18_linear)"></path> <path d="M220.959 193.415L213.169 188.915V185.645L220.959 190.145V193.415Z" fill="#00FFFF"></path> <path d="M235.459 193.415L243.259 188.915V185.645L235.459 190.145V193.415Z" fill="#00FFFF"></path> <path d="M220.959 190.145V193.415L201.359 204.725L193.569 200.225V196.955L213.169 185.645L220.959 190.145Z" fill="url(#paint19_linear)"></path> <path d="M235.459 190.145V193.415L255.059 204.725L262.849 200.225V196.955L243.259 185.645L235.459 190.145Z" fill="url(#paint20_linear)"></path> <g filter="url(#filter3_d)"> <path d="M157.038 87.468L162.278 84.468C163.151 83.9671 164.141 83.7036 165.148 83.7036C166.155 83.7036 167.144 83.9671 168.018 84.468L234.748 122.998H247.168V131.538C247.17 131.956 247.06 132.367 246.851 132.729C246.642 133.091 246.341 133.391 245.978 133.598L167.978 178.598C167.106 179.104 166.116 179.37 165.108 179.37C164.1 179.37 163.11 179.104 162.238 178.598L84.2878 133.598C83.9227 133.393 83.6195 133.094 83.4101 132.731C83.2007 132.369 83.0928 131.957 83.0978 131.538V122.968L157.038 87.468Z" fill="url(#paint21_linear)"></path> </g> <path d="M161.378 183.148L67.5277 128.968C66.7593 128.525 66.1211 127.887 65.6774 127.119C65.2336 126.351 65 125.48 65 124.593C65 123.706 65.2336 122.835 65.6774 122.067C66.1211 121.299 66.7593 120.661 67.5277 120.218L161.378 66.038C162.525 65.3743 163.827 65.0249 165.153 65.0249C166.478 65.0249 167.78 65.3743 168.928 66.038L262.778 120.218C263.544 120.663 264.179 121.301 264.621 122.069C265.063 122.837 265.295 123.707 265.295 124.593C265.295 125.479 265.063 126.349 264.621 127.117C264.179 127.885 263.544 128.523 262.778 128.968L168.928 183.148C167.78 183.812 166.478 184.161 165.153 184.161C163.827 184.161 162.525 183.812 161.378 183.148V183.148Z" stroke="#4CEAF5" stroke-width="0.69" stroke-miterlimit="10"></path> <path d="M157.038 87.468L162.278 84.468C163.151 83.9671 164.141 83.7036 165.148 83.7036C166.155 83.7036 167.144 83.9671 168.018 84.468L234.748 122.998H247.168V123.548C247.17 123.966 247.06 124.377 246.851 124.739C246.642 125.101 246.341 125.401 245.978 125.608L167.978 170.608C167.106 171.114 166.116 171.38 165.108 171.38C164.1 171.38 163.11 171.114 162.238 170.608L84.2877 125.608C83.924 125.402 83.622 125.102 83.4128 124.74C83.2036 124.378 83.0948 123.966 83.0977 123.548V122.998L157.038 87.468Z" fill="url(#paint22_linear)"></path> <path d="M162.288 169.588L84.2876 124.588C83.9264 124.379 83.6264 124.079 83.4179 123.717C83.2094 123.355 83.0996 122.945 83.0996 122.528C83.0996 122.111 83.2094 121.701 83.4179 121.339C83.6264 120.977 83.9264 120.677 84.2876 120.468L162.288 75.468C163.161 74.9671 164.151 74.7036 165.158 74.7036C166.165 74.7036 167.154 74.9671 168.028 75.468L246.028 120.468C246.389 120.677 246.689 120.977 246.897 121.339C247.106 121.701 247.216 122.111 247.216 122.528C247.216 122.945 247.106 123.355 246.897 123.717C246.689 124.079 246.389 124.379 246.028 124.588L168.028 169.588C167.156 170.096 166.166 170.363 165.158 170.363C164.149 170.363 163.159 170.096 162.288 169.588Z" fill="url(#paint23_linear)"></path> <path d="M172.067 174.158L179.867 169.658V166.388L172.067 170.888V174.158Z" fill="#00FFFF"></path> <path d="M233 138.795L240.8 134.295V131.025L233 135.525V138.795Z" fill="#00FFFF"></path> <path d="M233 135.525V138.795L252.6 150.105L260.39 145.605V142.335L240.8 131.025L233 135.525Z" fill="url(#paint24_linear)"></path> <path d="M172 170.525V173.795L191.6 185.105L199.39 180.605V177.335L179.8 166.025L172 170.525Z" fill="url(#paint25_linear)"></path> <path d="M96.7375 138.278L88.9375 133.778V130.508L96.7375 135.008V138.278Z" fill="#00FFFF"></path> <path d="M96.4076 134.978V138.248L76.8176 149.558L69.0176 145.058V141.788L88.6176 130.478L96.4076 134.978Z" fill="url(#paint26_linear)"></path> <path d="M158.878 174.158L151.088 169.658V166.388L158.878 170.888V174.158Z" fill="#00FFFF"></path> <path d="M158.558 170.858V174.128L138.958 185.438L131.168 180.938V177.668L150.758 166.358L158.558 170.858Z" fill="url(#paint27_linear)"></path> <rect opacity="0.2" x="92" y="122.025" width="60" height="52" fill="url(#paint28_linear)"></rect> <rect opacity="0.2" x="178" y="122.025" width="60" height="52" fill="url(#paint29_linear)"></rect> <g style="mix-blend-mode:multiply"> <path d="M101.629 228.038C99.6313 228.043 97.6682 227.518 95.9389 226.518L66.0889 209.288C65.151 208.756 64.3711 207.985 63.8285 207.053C63.2859 206.121 63 205.062 63 203.983C63 202.905 63.2859 201.846 63.8285 200.914C64.3711 199.982 65.151 199.211 66.0889 198.678L95.9389 181.478C97.669 180.485 99.629 179.963 101.624 179.963C103.619 179.963 105.579 180.485 107.309 181.478L137.159 198.678C138.09 199.212 138.863 199.981 139.401 200.909C139.939 201.837 140.223 202.891 140.223 203.963C140.223 205.036 139.939 206.09 139.401 207.018C138.863 207.946 138.09 208.715 137.159 209.248L107.309 226.518C105.583 227.518 103.623 228.043 101.629 228.038ZM96.2889 225.918C97.9128 226.855 99.7543 227.348 101.629 227.348C103.503 227.348 105.345 226.855 106.969 225.918L136.819 208.678C137.641 208.204 138.324 207.521 138.799 206.698C139.274 205.876 139.524 204.943 139.524 203.993C139.524 203.044 139.274 202.111 138.799 201.289C138.324 200.466 137.641 199.783 136.819 199.308L106.969 182.078C105.344 181.145 103.503 180.654 101.629 180.654C99.7549 180.654 97.9137 181.145 96.2889 182.078L66.4389 199.318C65.6163 199.792 64.9331 200.474 64.458 201.295C63.983 202.117 63.7329 203.049 63.7329 203.998C63.7329 204.948 63.983 205.88 64.458 206.701C64.9331 207.523 65.6163 208.205 66.4389 208.678L96.2889 225.918Z" fill="#CCCCCC"></path> </g> <path opacity="0.4" d="M131.758 187.079V190.349L107.738 204.019L99.9385 199.519V196.239L123.968 182.579L131.758 187.079Z" fill="url(#paint30_linear)"></path> <path opacity="0.4" d="M70.6592 187.079V190.349L94.6792 204.019L102.479 199.519V196.239L78.4592 182.579L70.6592 187.079Z" fill="url(#paint31_linear)"></path> <g filter="url(#filter4_d)"> <path d="M93.0986 196.679L98.3386 193.679C99.2057 193.18 100.188 192.918 101.189 192.918C102.189 192.918 103.171 193.18 104.039 193.679L109.279 196.679H121.739V205.219C121.741 205.638 121.632 206.051 121.423 206.414C121.214 206.778 120.912 207.08 120.549 207.289L104.039 216.799C103.167 217.304 102.177 217.571 101.169 217.571C100.161 217.571 99.1705 217.304 98.2986 216.799L81.8386 207.299C81.4734 207.091 81.1704 206.79 80.9611 206.426C80.7518 206.062 80.6439 205.648 80.6486 205.229V196.679H93.0986Z" fill="url(#paint32_linear)"></path> </g> <path d="M93.0986 196.679L98.3386 193.679C99.2057 193.18 100.188 192.918 101.189 192.918C102.189 192.918 103.171 193.18 104.039 193.679L109.279 196.679H121.739V197.229C121.741 197.648 121.632 198.061 121.423 198.424C121.214 198.788 120.912 199.09 120.549 199.299L104.039 208.809C103.167 209.314 102.177 209.581 101.169 209.581C100.161 209.581 99.1705 209.314 98.2986 208.809L81.8386 199.309C81.4734 199.101 81.1704 198.8 80.9611 198.436C80.7518 198.072 80.6439 197.658 80.6486 197.239V196.679H93.0986Z" fill="url(#paint33_linear)"></path> <path d="M98.3393 207.809L81.8793 198.309C81.5157 198.1 81.2135 197.799 81.0034 197.437C80.7933 197.074 80.6826 196.663 80.6826 196.244C80.6826 195.824 80.7933 195.413 81.0034 195.05C81.2135 194.688 81.5157 194.387 81.8793 194.179L98.3393 184.679C99.2065 184.18 100.189 183.918 101.189 183.918C102.189 183.918 103.172 184.18 104.039 184.679L120.509 194.179C120.87 194.389 121.17 194.69 121.378 195.053C121.586 195.415 121.696 195.826 121.696 196.244C121.696 196.661 121.586 197.072 121.378 197.434C121.17 197.797 120.87 198.098 120.509 198.309L104.039 207.809C103.172 208.307 102.189 208.569 101.189 208.569C100.189 208.569 99.2065 208.307 98.3393 207.809Z" fill="url(#paint34_linear)"></path> <path d="M93.9589 211.969L86.1689 207.469V204.199L93.9589 208.699V211.969Z" fill="#00FFFF"></path> <path d="M108.459 211.969L116.259 207.469V204.199L108.459 208.699V211.969Z" fill="#00FFFF"></path> <path d="M93.9593 208.699V211.969L74.3593 223.279L66.5693 218.779V215.509L86.1693 204.199L93.9593 208.699Z" fill="url(#paint35_linear)"></path> <path d="M108.459 208.699V211.969L128.059 223.279L135.849 218.779V215.509L116.259 204.199L108.459 208.699Z" fill="url(#paint36_linear)"></path> <path d="M96.1189 219.939L66.2689 202.679C65.3852 202.177 64.6503 201.45 64.139 200.571C63.6278 199.693 63.3584 198.695 63.3584 197.679C63.3584 196.662 63.6278 195.664 64.139 194.786C64.6503 193.908 65.3852 193.18 66.2689 192.679L96.1189 175.499C97.7912 174.533 99.688 174.025 101.619 174.025C103.55 174.025 105.447 174.533 107.119 175.499L137.039 192.739C137.923 193.24 138.658 193.968 139.169 194.846C139.68 195.724 139.949 196.722 139.949 197.739C139.949 198.755 139.68 199.753 139.169 200.631C138.658 201.51 137.923 202.237 137.039 202.739L107.139 219.939C105.464 220.908 103.564 221.418 101.629 221.418C99.6941 221.418 97.7935 220.908 96.1189 219.939Z" stroke="#4CEAF5" stroke-width="0.69" stroke-miterlimit="10"></path> <g style="mix-blend-mode:multiply"> <path d="M288.629 55.0385C286.631 55.0427 284.668 54.5183 282.939 53.5185L253.089 36.2885C252.151 35.7562 251.371 34.9848 250.828 34.0529C250.286 33.1209 250 32.0619 250 30.9835C250 29.9051 250.286 28.846 250.828 27.9141C251.371 26.9822 252.151 26.2108 253.089 25.6785L282.939 8.47849C284.669 7.48543 286.629 6.96289 288.624 6.96289C290.619 6.96289 292.579 7.48543 294.309 8.47849L324.159 25.6785C325.09 26.2115 325.863 26.981 326.401 27.909C326.939 28.8371 327.223 29.8908 327.223 30.9635C327.223 32.0362 326.939 33.0899 326.401 34.018C325.863 34.946 325.09 35.7155 324.159 36.2485L294.309 53.5185C292.583 54.5184 290.623 55.0429 288.629 55.0385ZM283.289 52.9185C284.913 53.8549 286.754 54.3478 288.629 54.3478C290.503 54.3478 292.345 53.8549 293.969 52.9185L323.819 35.6785C324.641 35.2036 325.324 34.5207 325.799 33.6983C326.274 32.8759 326.524 31.9431 326.524 30.9935C326.524 30.0439 326.274 29.111 325.799 28.2887C325.324 27.4663 324.641 26.7833 323.819 26.3085L293.969 9.07849C292.344 8.14502 290.503 7.6538 288.629 7.6538C286.755 7.6538 284.914 8.14502 283.289 9.07849L253.439 26.3185C252.616 26.792 251.933 27.4739 251.458 28.2955C250.983 29.1171 250.733 30.0494 250.733 30.9985C250.733 31.9476 250.983 32.8799 251.458 33.7015C251.933 34.5231 252.616 35.205 253.439 35.6785L283.289 52.9185Z" fill="#CCCCCC"></path> </g> <path opacity="0.4" d="M318.758 14.0786V17.3486L294.738 31.0186L286.938 26.5186V23.2386L310.968 9.57861L318.758 14.0786Z" fill="url(#paint37_linear)"></path> <path opacity="0.4" d="M257.659 14.0786V17.3486L281.679 31.0186L289.479 26.5186V23.2386L265.459 9.57861L257.659 14.0786Z" fill="url(#paint38_linear)"></path> <g filter="url(#filter5_d)"> <path d="M280.099 23.6785L285.339 20.6785C286.206 20.1802 287.188 19.918 288.189 19.918C289.189 19.918 290.171 20.1802 291.039 20.6785L296.279 23.6785H308.739V32.2185C308.741 32.638 308.632 33.0507 308.423 33.4143C308.214 33.778 307.912 34.0797 307.549 34.2885L291.039 43.7985C290.167 44.3043 289.177 44.5707 288.169 44.5707C287.161 44.5707 286.171 44.3043 285.299 43.7985L268.839 34.2985C268.473 34.0913 268.17 33.79 267.961 33.4259C267.752 33.0619 267.644 32.6484 267.649 32.2285V23.6785H280.099Z" fill="url(#paint39_linear)"></path> </g> <path d="M280.099 23.6785L285.339 20.6785C286.206 20.1802 287.188 19.918 288.189 19.918C289.189 19.918 290.171 20.1802 291.039 20.6785L296.279 23.6785H308.739V24.2285C308.741 24.648 308.632 25.0607 308.423 25.4243C308.214 25.788 307.912 26.0897 307.549 26.2985L291.039 35.8085C290.167 36.3143 289.177 36.5807 288.169 36.5807C287.161 36.5807 286.171 36.3143 285.299 35.8085L268.839 26.3085C268.473 26.1013 268.17 25.8 267.961 25.4359C267.752 25.0719 267.644 24.6584 267.649 24.2385V23.6785H280.099Z" fill="url(#paint40_linear)"></path> <path d="M285.339 34.8085L268.879 25.3085C268.516 25.1002 268.214 24.7995 268.003 24.4369C267.793 24.0743 267.683 23.6626 267.683 23.2435C267.683 22.8245 267.793 22.4128 268.003 22.0502C268.214 21.6876 268.516 21.3869 268.879 21.1785L285.339 11.6785C286.206 11.1802 287.189 10.918 288.189 10.918C289.189 10.918 290.172 11.1802 291.039 11.6785L307.509 21.1785C307.87 21.3889 308.17 21.6903 308.378 22.0527C308.586 22.415 308.696 22.8256 308.696 23.2435C308.696 23.6615 308.586 24.0721 308.378 24.4344C308.17 24.7967 307.87 25.0981 307.509 25.3085L291.039 34.8085C290.172 35.3069 289.189 35.5691 288.189 35.5691C287.189 35.5691 286.206 35.3069 285.339 34.8085Z" fill="url(#paint41_linear)"></path> <path d="M280.959 38.9687L273.169 34.4687V31.1987L280.959 35.6987V38.9687Z" fill="#00FFFF"></path> <path d="M295.459 38.9687L303.259 34.4687V31.1987L295.459 35.6987V38.9687Z" fill="#00FFFF"></path> <path d="M280.959 35.6987V38.9687L261.359 50.2787L253.569 45.7787V42.5087L273.169 31.1987L280.959 35.6987Z" fill="url(#paint42_linear)"></path> <path d="M295.459 35.6987V38.9687L315.059 50.2787L322.849 45.7787V42.5087L303.259 31.1987L295.459 35.6987Z" fill="url(#paint43_linear)"></path> <path d="M283.119 46.9386L253.269 29.6786C252.385 29.1768 251.65 28.4497 251.139 27.5713C250.628 26.693 250.358 25.6949 250.358 24.6786C250.358 23.6623 250.628 22.6642 251.139 21.7859C251.65 20.9076 252.385 20.1805 253.269 19.6786L283.119 2.49862C284.791 1.53317 286.688 1.0249 288.619 1.0249C290.55 1.0249 292.447 1.53317 294.119 2.49862L324.039 19.7386C324.923 20.2405 325.658 20.9676 326.169 21.8459C326.68 22.7242 326.949 23.7223 326.949 24.7386C326.949 25.7549 326.68 26.753 326.169 27.6313C325.658 28.5097 324.923 29.2368 324.039 29.7386L294.139 46.9386C292.464 47.9078 290.564 48.4181 288.629 48.4181C286.694 48.4181 284.794 47.9078 283.119 46.9386Z" stroke="#4CEAF5" stroke-width="0.69" stroke-miterlimit="10"></path> <g filter="url(#filter6_d)"> <path d="M110.25 109.568L117.94 105.128C119.223 104.391 120.676 104.003 122.155 104.003C123.634 104.003 125.087 104.391 126.37 105.128L134.03 109.568L152.25 116.788V122.108C152.25 122.717 152.089 123.315 151.783 123.841C151.477 124.368 151.038 124.805 150.51 125.108L126.34 139.108C125.059 139.85 123.605 140.24 122.125 140.24C120.645 140.24 119.191 139.85 117.91 139.108L93.75 125.108C93.2191 124.807 92.7774 124.371 92.47 123.844C92.1625 123.317 92.0004 122.718 92 122.108V116.788L110.25 109.568Z" fill="url(#paint44_linear)"></path> <path d="M110.25 116.787L117.94 112.347C119.223 111.61 120.676 111.223 122.155 111.223C123.634 111.223 125.088 111.61 126.37 112.347L134.03 116.787H152.28V117.597C152.28 118.206 152.119 118.804 151.813 119.331C151.508 119.858 151.069 120.295 150.54 120.597L126.37 134.577C125.089 135.319 123.635 135.71 122.155 135.71C120.675 135.71 119.221 135.319 117.94 134.577L93.7803 120.627C93.2494 120.327 92.8077 119.891 92.5002 119.364C92.1928 118.837 92.0306 118.238 92.0303 117.627V116.817L110.25 116.787Z" fill="url(#paint45_linear)"></path> <path d="M117.95 133.118L93.7803 119.118C93.2488 118.81 92.8074 118.369 92.5006 117.837C92.1938 117.305 92.0322 116.702 92.0322 116.088C92.0322 115.474 92.1938 114.87 92.5006 114.339C92.8074 113.807 93.2488 113.365 93.7803 113.058L117.95 99.1576C119.229 98.4157 120.682 98.0249 122.16 98.0249C123.639 98.0249 125.091 98.4157 126.37 99.1576L150.54 113.158C151.072 113.465 151.513 113.907 151.82 114.439C152.127 114.97 152.288 115.574 152.288 116.188C152.288 116.802 152.127 117.405 151.82 117.937C151.513 118.469 151.072 118.91 150.54 119.218L126.37 133.218C125.081 133.94 123.625 134.31 122.147 134.293C120.669 134.275 119.222 133.87 117.95 133.118Z" fill="#29ABE2"></path> <path d="M119.89 125.288L106.89 117.768C106.603 117.603 106.365 117.365 106.199 117.079C106.033 116.793 105.946 116.468 105.946 116.138C105.946 115.807 106.033 115.482 106.199 115.196C106.365 114.91 106.603 114.672 106.89 114.508L119.89 107.028C120.578 106.625 121.362 106.413 122.16 106.413C122.957 106.413 123.741 106.625 124.43 107.028L137.43 114.548C137.714 114.714 137.949 114.953 138.113 115.238C138.277 115.524 138.363 115.848 138.363 116.178C138.363 116.507 138.277 116.831 138.113 117.117C137.949 117.403 137.714 117.641 137.43 117.808L124.43 125.328C123.736 125.72 122.951 125.923 122.154 125.916C121.357 125.909 120.576 125.692 119.89 125.288Z" fill="url(#paint46_linear)"></path> </g> <g filter="url(#filter7_d)"> <path d="M153.25 82.5677L160.94 78.1277C162.223 77.3908 163.676 77.0029 165.155 77.0029C166.634 77.0029 168.087 77.3908 169.37 78.1277L177.03 82.5677L195.25 89.7877V95.1077C195.25 95.7167 195.089 96.3147 194.783 96.8415C194.477 97.3682 194.038 97.805 193.51 98.1077L169.34 112.108C168.059 112.85 166.605 113.24 165.125 113.24C163.645 113.24 162.191 112.85 160.91 112.108L136.75 98.1077C136.219 97.8071 135.777 97.371 135.47 96.844C135.163 96.317 135 95.7178 135 95.1077V89.7877L153.25 82.5677Z" fill="url(#paint47_linear)"></path> <path d="M153.25 89.7874L160.94 85.3474C162.223 84.6105 163.676 84.2227 165.155 84.2227C166.634 84.2227 168.088 84.6105 169.37 85.3474L177.03 89.7874H195.28V90.5974C195.28 91.2064 195.119 91.8044 194.813 92.3312C194.508 92.8579 194.069 93.2947 193.54 93.5974L169.37 107.577C168.089 108.319 166.635 108.71 165.155 108.71C163.675 108.71 162.221 108.319 160.94 107.577L136.78 93.6274C136.249 93.3268 135.808 92.8907 135.5 92.3637C135.193 91.8367 135.031 91.2376 135.03 90.6274V89.8174L153.25 89.7874Z" fill="url(#paint48_linear)"></path> <path d="M160.95 106.118L136.78 92.1176C136.249 91.8103 135.807 91.3685 135.501 90.8367C135.194 90.3048 135.032 89.7016 135.032 89.0876C135.032 88.4736 135.194 87.8704 135.501 87.3386C135.807 86.8067 136.249 86.365 136.78 86.0576L160.95 72.1576C162.229 71.4157 163.682 71.0249 165.16 71.0249C166.639 71.0249 168.091 71.4157 169.37 72.1576L193.54 86.1576C194.072 86.465 194.513 86.9067 194.82 87.4386C195.127 87.9704 195.288 88.5736 195.288 89.1876C195.288 89.8016 195.127 90.4048 194.82 90.9367C194.513 91.4685 194.072 91.9103 193.54 92.2176L169.37 106.218C168.081 106.94 166.625 107.31 165.147 107.293C163.669 107.275 162.222 106.87 160.95 106.118Z" fill="#29ABE2"></path> <path d="M162.89 98.2876L149.89 90.7676C149.603 90.6028 149.365 90.3654 149.199 90.0792C149.033 89.793 148.946 89.4682 148.946 89.1376C148.946 88.8069 149.033 88.4821 149.199 88.196C149.365 87.9098 149.603 87.6723 149.89 87.5076L162.89 80.0276C163.578 79.6252 164.362 79.4131 165.16 79.4131C165.957 79.4131 166.741 79.6252 167.43 80.0276L180.43 87.5476C180.714 87.7144 180.949 87.9525 181.113 88.2384C181.277 88.5244 181.363 88.8481 181.363 89.1776C181.363 89.5071 181.277 89.8308 181.113 90.1167C180.949 90.4027 180.714 90.6408 180.43 90.8076L167.43 98.3276C166.736 98.72 165.951 98.9229 165.154 98.9159C164.357 98.9088 163.576 98.6922 162.89 98.2876Z" fill="url(#paint49_linear)"></path> </g> <g filter="url(#filter8_d)"> <path d="M196.25 109.568L203.94 105.128C205.223 104.391 206.676 104.003 208.155 104.003C209.634 104.003 211.087 104.391 212.37 105.128L220.03 109.568L238.25 116.788V122.108C238.25 122.717 238.089 123.315 237.783 123.841C237.477 124.368 237.038 124.805 236.51 125.108L212.34 139.108C211.059 139.85 209.605 140.24 208.125 140.24C206.645 140.24 205.191 139.85 203.91 139.108L179.75 125.108C179.219 124.807 178.777 124.371 178.47 123.844C178.163 123.317 178 122.718 178 122.108V116.788L196.25 109.568Z" fill="url(#paint50_linear)"></path> <path d="M196.25 116.787L203.94 112.347C205.223 111.61 206.676 111.223 208.155 111.223C209.634 111.223 211.088 111.61 212.37 112.347L220.03 116.787H238.28V117.597C238.28 118.206 238.119 118.804 237.813 119.331C237.508 119.858 237.069 120.295 236.54 120.597L212.37 134.577C211.089 135.319 209.635 135.71 208.155 135.71C206.675 135.71 205.221 135.319 203.94 134.577L179.78 120.627C179.249 120.327 178.808 119.891 178.5 119.364C178.193 118.837 178.031 118.238 178.03 117.627V116.817L196.25 116.787Z" fill="url(#paint51_linear)"></path> <path d="M203.95 133.118L179.78 119.118C179.249 118.81 178.807 118.369 178.501 117.837C178.194 117.305 178.032 116.702 178.032 116.088C178.032 115.474 178.194 114.87 178.501 114.339C178.807 113.807 179.249 113.365 179.78 113.058L203.95 99.1576C205.229 98.4157 206.682 98.0249 208.16 98.0249C209.639 98.0249 211.091 98.4157 212.37 99.1576L236.54 113.158C237.072 113.465 237.513 113.907 237.82 114.439C238.127 114.97 238.288 115.574 238.288 116.188C238.288 116.802 238.127 117.405 237.82 117.937C237.513 118.469 237.072 118.91 236.54 119.218L212.37 133.218C211.081 133.94 209.625 134.31 208.147 134.293C206.669 134.275 205.222 133.87 203.95 133.118Z" fill="#29ABE2"></path> <path d="M205.89 125.288L192.89 117.768C192.603 117.603 192.365 117.365 192.199 117.079C192.033 116.793 191.946 116.468 191.946 116.138C191.946 115.807 192.033 115.482 192.199 115.196C192.365 114.91 192.603 114.672 192.89 114.508L205.89 107.028C206.578 106.625 207.362 106.413 208.16 106.413C208.957 106.413 209.741 106.625 210.43 107.028L223.43 114.548C223.714 114.714 223.949 114.953 224.113 115.238C224.277 115.524 224.363 115.848 224.363 116.178C224.363 116.507 224.277 116.831 224.113 117.117C223.949 117.403 223.714 117.641 223.43 117.808L210.43 125.328C209.736 125.72 208.951 125.923 208.154 125.916C207.357 125.909 206.576 125.692 205.89 125.288Z" fill="url(#paint52_linear)"></path> </g> <g filter="url(#filter9_d)"> <path d="M110.25 97.5677L117.94 93.1277C119.223 92.3908 120.676 92.0029 122.155 92.0029C123.634 92.0029 125.087 92.3908 126.37 93.1277L134.03 97.5677L152.25 104.788V110.108C152.25 110.717 152.089 111.315 151.783 111.841C151.477 112.368 151.038 112.805 150.51 113.108L126.34 127.108C125.059 127.85 123.605 128.24 122.125 128.24C120.645 128.24 119.191 127.85 117.91 127.108L93.75 113.108C93.2191 112.807 92.7774 112.371 92.47 111.844C92.1625 111.317 92.0004 110.718 92 110.108V104.788L110.25 97.5677Z" fill="url(#paint53_linear)"></path> <path d="M110.25 104.787L117.94 100.347C119.223 99.6105 120.676 99.2227 122.155 99.2227C123.634 99.2227 125.088 99.6105 126.37 100.347L134.03 104.787H152.28V105.597C152.28 106.206 152.119 106.804 151.813 107.331C151.508 107.858 151.069 108.295 150.54 108.597L126.37 122.577C125.089 123.319 123.635 123.71 122.155 123.71C120.675 123.71 119.221 123.319 117.94 122.577L93.7803 108.627C93.2494 108.327 92.8077 107.891 92.5002 107.364C92.1928 106.837 92.0306 106.238 92.0303 105.627V104.817L110.25 104.787Z" fill="url(#paint54_linear)"></path> <path d="M117.95 121.118L93.7803 107.118C93.2488 106.81 92.8074 106.369 92.5006 105.837C92.1938 105.305 92.0322 104.702 92.0322 104.088C92.0322 103.474 92.1938 102.87 92.5006 102.339C92.8074 101.807 93.2488 101.365 93.7803 101.058L117.95 87.1576C119.229 86.4157 120.682 86.0249 122.16 86.0249C123.639 86.0249 125.091 86.4157 126.37 87.1576L150.54 101.158C151.072 101.465 151.513 101.907 151.82 102.439C152.127 102.97 152.288 103.574 152.288 104.188C152.288 104.802 152.127 105.405 151.82 105.937C151.513 106.469 151.072 106.91 150.54 107.218L126.37 121.218C125.081 121.94 123.625 122.31 122.147 122.293C120.669 122.275 119.222 121.87 117.95 121.118Z" fill="#29ABE2"></path> <path d="M119.89 113.288L106.89 105.768C106.603 105.603 106.365 105.365 106.199 105.079C106.033 104.793 105.946 104.468 105.946 104.138C105.946 103.807 106.033 103.482 106.199 103.196C106.365 102.91 106.603 102.672 106.89 102.508L119.89 95.0276C120.578 94.6252 121.362 94.4131 122.16 94.4131C122.957 94.4131 123.741 94.6252 124.43 95.0276L137.43 102.548C137.714 102.714 137.949 102.953 138.113 103.238C138.277 103.524 138.363 103.848 138.363 104.178C138.363 104.507 138.277 104.831 138.113 105.117C137.949 105.403 137.714 105.641 137.43 105.808L124.43 113.328C123.736 113.72 122.951 113.923 122.154 113.916C121.357 113.909 120.576 113.692 119.89 113.288Z" fill="url(#paint55_linear)"></path> </g> <g filter="url(#filter10_d)"> <path d="M153.25 70.5677L160.94 66.1277C162.223 65.3908 163.676 65.0029 165.155 65.0029C166.634 65.0029 168.087 65.3908 169.37 66.1277L177.03 70.5677L195.25 77.7877V83.1077C195.25 83.7167 195.089 84.3147 194.783 84.8415C194.477 85.3682 194.038 85.805 193.51 86.1077L169.34 100.108C168.059 100.85 166.605 101.24 165.125 101.24C163.645 101.24 162.191 100.85 160.91 100.108L136.75 86.1077C136.219 85.8071 135.777 85.371 135.47 84.844C135.163 84.317 135 83.7178 135 83.1077V77.7877L153.25 70.5677Z" fill="url(#paint56_linear)"></path> <path d="M153.25 77.7874L160.94 73.3474C162.223 72.6105 163.676 72.2227 165.155 72.2227C166.634 72.2227 168.088 72.6105 169.37 73.3474L177.03 77.7874H195.28V78.5974C195.28 79.2064 195.119 79.8044 194.813 80.3312C194.508 80.8579 194.069 81.2947 193.54 81.5974L169.37 95.5774C168.089 96.3193 166.635 96.71 165.155 96.71C163.675 96.71 162.221 96.3193 160.94 95.5774L136.78 81.6274C136.249 81.3268 135.808 80.8907 135.5 80.3637C135.193 79.8367 135.031 79.2376 135.03 78.6274V77.8174L153.25 77.7874Z" fill="url(#paint57_linear)"></path> <path d="M160.95 94.1176L136.78 80.1176C136.249 79.8103 135.807 79.3685 135.501 78.8367C135.194 78.3048 135.032 77.7016 135.032 77.0876C135.032 76.4736 135.194 75.8704 135.501 75.3386C135.807 74.8067 136.249 74.365 136.78 74.0576L160.95 60.1576C162.229 59.4157 163.682 59.0249 165.16 59.0249C166.639 59.0249 168.091 59.4157 169.37 60.1576L193.54 74.1576C194.072 74.465 194.513 74.9067 194.82 75.4386C195.127 75.9704 195.288 76.5736 195.288 77.1876C195.288 77.8016 195.127 78.4048 194.82 78.9367C194.513 79.4685 194.072 79.9103 193.54 80.2176L169.37 94.2176C168.081 94.9395 166.625 95.3102 165.147 95.2927C163.669 95.2752 162.222 94.87 160.95 94.1176Z" fill="#29ABE2"></path> <path d="M162.89 86.2876L149.89 78.7676C149.603 78.6028 149.365 78.3654 149.199 78.0792C149.033 77.793 148.946 77.4682 148.946 77.1376C148.946 76.8069 149.033 76.4821 149.199 76.196C149.365 75.9098 149.603 75.6723 149.89 75.5076L162.89 68.0276C163.578 67.6252 164.362 67.4131 165.16 67.4131C165.957 67.4131 166.741 67.6252 167.43 68.0276L180.43 75.5476C180.714 75.7144 180.949 75.9525 181.113 76.2384C181.277 76.5244 181.363 76.8481 181.363 77.1776C181.363 77.5071 181.277 77.8308 181.113 78.1167C180.949 78.4027 180.714 78.6408 180.43 78.8076L167.43 86.3276C166.736 86.72 165.951 86.9229 165.154 86.9159C164.357 86.9088 163.576 86.6922 162.89 86.2876Z" fill="url(#paint58_linear)"></path> </g> <g filter="url(#filter11_d)"> <path d="M196.25 97.5677L203.94 93.1277C205.223 92.3908 206.676 92.0029 208.155 92.0029C209.634 92.0029 211.087 92.3908 212.37 93.1277L220.03 97.5677L238.25 104.788V110.108C238.25 110.717 238.089 111.315 237.783 111.841C237.477 112.368 237.038 112.805 236.51 113.108L212.34 127.108C211.059 127.85 209.605 128.24 208.125 128.24C206.645 128.24 205.191 127.85 203.91 127.108L179.75 113.108C179.219 112.807 178.777 112.371 178.47 111.844C178.163 111.317 178 110.718 178 110.108V104.788L196.25 97.5677Z" fill="url(#paint59_linear)"></path> <path d="M196.25 104.787L203.94 100.347C205.223 99.6105 206.676 99.2227 208.155 99.2227C209.634 99.2227 211.088 99.6105 212.37 100.347L220.03 104.787H238.28V105.597C238.28 106.206 238.119 106.804 237.813 107.331C237.508 107.858 237.069 108.295 236.54 108.597L212.37 122.577C211.089 123.319 209.635 123.71 208.155 123.71C206.675 123.71 205.221 123.319 203.94 122.577L179.78 108.627C179.249 108.327 178.808 107.891 178.5 107.364C178.193 106.837 178.031 106.238 178.03 105.627V104.817L196.25 104.787Z" fill="url(#paint60_linear)"></path> <path d="M203.95 121.118L179.78 107.118C179.249 106.81 178.807 106.369 178.501 105.837C178.194 105.305 178.032 104.702 178.032 104.088C178.032 103.474 178.194 102.87 178.501 102.339C178.807 101.807 179.249 101.365 179.78 101.058L203.95 87.1576C205.229 86.4157 206.682 86.0249 208.16 86.0249C209.639 86.0249 211.091 86.4157 212.37 87.1576L236.54 101.158C237.072 101.465 237.513 101.907 237.82 102.439C238.127 102.97 238.288 103.574 238.288 104.188C238.288 104.802 238.127 105.405 237.82 105.937C237.513 106.469 237.072 106.91 236.54 107.218L212.37 121.218C211.081 121.94 209.625 122.31 208.147 122.293C206.669 122.275 205.222 121.87 203.95 121.118Z" fill="#29ABE2"></path> <path d="M205.89 113.288L192.89 105.768C192.603 105.603 192.365 105.365 192.199 105.079C192.033 104.793 191.946 104.468 191.946 104.138C191.946 103.807 192.033 103.482 192.199 103.196C192.365 102.91 192.603 102.672 192.89 102.508L205.89 95.0276C206.578 94.6252 207.362 94.4131 208.16 94.4131C208.957 94.4131 209.741 94.6252 210.43 95.0276L223.43 102.548C223.714 102.714 223.949 102.953 224.113 103.238C224.277 103.524 224.363 103.848 224.363 104.178C224.363 104.507 224.277 104.831 224.113 105.117C223.949 105.403 223.714 105.641 223.43 105.808L210.43 113.328C209.736 113.72 208.951 113.923 208.154 113.916C207.357 113.909 206.576 113.692 205.89 113.288Z" fill="url(#paint61_linear)"></path> </g> <g filter="url(#filter12_d)"> <path d="M110.25 85.5677L117.94 81.1277C119.223 80.3908 120.676 80.0029 122.155 80.0029C123.634 80.0029 125.087 80.3908 126.37 81.1277L134.03 85.5677L152.25 92.7877V98.1077C152.25 98.7167 152.089 99.3147 151.783 99.8415C151.477 100.368 151.038 100.805 150.51 101.108L126.34 115.108C125.059 115.85 123.605 116.24 122.125 116.24C120.645 116.24 119.191 115.85 117.91 115.108L93.75 101.108C93.2191 100.807 92.7774 100.371 92.47 99.844C92.1625 99.317 92.0004 98.7178 92 98.1077V92.7877L110.25 85.5677Z" fill="url(#paint62_linear)"></path> <path d="M110.25 92.7874L117.94 88.3474C119.223 87.6105 120.676 87.2227 122.155 87.2227C123.634 87.2227 125.088 87.6105 126.37 88.3474L134.03 92.7874H152.28V93.5974C152.28 94.2064 152.119 94.8044 151.813 95.3312C151.508 95.8579 151.069 96.2947 150.54 96.5974L126.37 110.577C125.089 111.319 123.635 111.71 122.155 111.71C120.675 111.71 119.221 111.319 117.94 110.577L93.7803 96.6274C93.2494 96.3268 92.8077 95.8907 92.5002 95.3637C92.1928 94.8367 92.0306 94.2376 92.0303 93.6274V92.8174L110.25 92.7874Z" fill="url(#paint63_linear)"></path> <path d="M117.95 109.118L93.7803 95.1176C93.2488 94.8103 92.8074 94.3685 92.5006 93.8367C92.1938 93.3048 92.0322 92.7016 92.0322 92.0876C92.0322 91.4736 92.1938 90.8704 92.5006 90.3386C92.8074 89.8067 93.2488 89.365 93.7803 89.0576L117.95 75.1576C119.229 74.4157 120.682 74.0249 122.16 74.0249C123.639 74.0249 125.091 74.4157 126.37 75.1576L150.54 89.1576C151.072 89.465 151.513 89.9067 151.82 90.4386C152.127 90.9704 152.288 91.5736 152.288 92.1876C152.288 92.8016 152.127 93.4048 151.82 93.9367C151.513 94.4685 151.072 94.9103 150.54 95.2176L126.37 109.218C125.081 109.94 123.625 110.31 122.147 110.293C120.669 110.275 119.222 109.87 117.95 109.118Z" fill="#29ABE2"></path> <path d="M119.89 101.288L106.89 93.7676C106.603 93.6028 106.365 93.3654 106.199 93.0792C106.033 92.793 105.946 92.4682 105.946 92.1376C105.946 91.8069 106.033 91.4821 106.199 91.196C106.365 90.9098 106.603 90.6723 106.89 90.5076L119.89 83.0276C120.578 82.6252 121.362 82.4131 122.16 82.4131C122.957 82.4131 123.741 82.6252 124.43 83.0276L137.43 90.5476C137.714 90.7144 137.949 90.9525 138.113 91.2384C138.277 91.5244 138.363 91.8481 138.363 92.1776C138.363 92.5071 138.277 92.8308 138.113 93.1167C137.949 93.4027 137.714 93.6408 137.43 93.8076L124.43 101.328C123.736 101.72 122.951 101.923 122.154 101.916C121.357 101.909 120.576 101.692 119.89 101.288Z" fill="url(#paint64_linear)"></path> </g> <g filter="url(#filter13_d)"> <path d="M153.25 58.5677L160.94 54.1277C162.223 53.3908 163.676 53.0029 165.155 53.0029C166.634 53.0029 168.087 53.3908 169.37 54.1277L177.03 58.5677L195.25 65.7877V71.1077C195.25 71.7167 195.089 72.3147 194.783 72.8415C194.477 73.3682 194.038 73.805 193.51 74.1077L169.34 88.1077C168.059 88.8496 166.605 89.2402 165.125 89.2402C163.645 89.2402 162.191 88.8496 160.91 88.1077L136.75 74.1077C136.219 73.8071 135.777 73.371 135.47 72.844C135.163 72.317 135 71.7178 135 71.1077V65.7877L153.25 58.5677Z" fill="url(#paint65_linear)"></path> <path d="M153.25 65.7874L160.94 61.3474C162.223 60.6105 163.676 60.2227 165.155 60.2227C166.634 60.2227 168.088 60.6105 169.37 61.3474L177.03 65.7874H195.28V66.5974C195.28 67.2064 195.119 67.8044 194.813 68.3312C194.508 68.8579 194.069 69.2947 193.54 69.5974L169.37 83.5774C168.089 84.3193 166.635 84.71 165.155 84.71C163.675 84.71 162.221 84.3193 160.94 83.5774L136.78 69.6274C136.249 69.3268 135.808 68.8907 135.5 68.3637C135.193 67.8367 135.031 67.2376 135.03 66.6274V65.8174L153.25 65.7874Z" fill="url(#paint66_linear)"></path> <path d="M160.95 82.1176L136.78 68.1176C136.249 67.8103 135.807 67.3685 135.501 66.8367C135.194 66.3048 135.032 65.7016 135.032 65.0876C135.032 64.4736 135.194 63.8704 135.501 63.3386C135.807 62.8067 136.249 62.365 136.78 62.0576L160.95 48.1576C162.229 47.4157 163.682 47.0249 165.16 47.0249C166.639 47.0249 168.091 47.4157 169.37 48.1576L193.54 62.1576C194.072 62.465 194.513 62.9067 194.82 63.4386C195.127 63.9704 195.288 64.5736 195.288 65.1876C195.288 65.8016 195.127 66.4048 194.82 66.9367C194.513 67.4685 194.072 67.9103 193.54 68.2176L169.37 82.2176C168.081 82.9395 166.625 83.3102 165.147 83.2927C163.669 83.2752 162.222 82.87 160.95 82.1176Z" fill="#29ABE2"></path> <path d="M162.89 74.2876L149.89 66.7676C149.603 66.6028 149.365 66.3654 149.199 66.0792C149.033 65.793 148.946 65.4682 148.946 65.1376C148.946 64.8069 149.033 64.4821 149.199 64.196C149.365 63.9098 149.603 63.6723 149.89 63.5076L162.89 56.0276C163.578 55.6252 164.362 55.4131 165.16 55.4131C165.957 55.4131 166.741 55.6252 167.43 56.0276L180.43 63.5476C180.714 63.7144 180.949 63.9525 181.113 64.2384C181.277 64.5244 181.363 64.8481 181.363 65.1776C181.363 65.5071 181.277 65.8308 181.113 66.1167C180.949 66.4027 180.714 66.6408 180.43 66.8076L167.43 74.3276C166.736 74.72 165.951 74.9229 165.154 74.9159C164.357 74.9088 163.576 74.6922 162.89 74.2876Z" fill="url(#paint67_linear)"></path> </g> <g filter="url(#filter14_d)"> <path d="M153.25 46.5677L160.94 42.1277C162.223 41.3908 163.676 41.0029 165.155 41.0029C166.634 41.0029 168.087 41.3908 169.37 42.1277L177.03 46.5677L195.25 53.7877V59.1077C195.25 59.7167 195.089 60.3147 194.783 60.8415C194.477 61.3682 194.038 61.805 193.51 62.1077L169.34 76.1077C168.059 76.8496 166.605 77.2402 165.125 77.2402C163.645 77.2402 162.191 76.8496 160.91 76.1077L136.75 62.1077C136.219 61.8071 135.777 61.371 135.47 60.844C135.163 60.317 135 59.7178 135 59.1077V53.7877L153.25 46.5677Z" fill="url(#paint68_linear)"></path> <path d="M153.25 53.7874L160.94 49.3474C162.223 48.6105 163.676 48.2227 165.155 48.2227C166.634 48.2227 168.088 48.6105 169.37 49.3474L177.03 53.7874H195.28V54.5974C195.28 55.2064 195.119 55.8044 194.813 56.3312C194.508 56.8579 194.069 57.2947 193.54 57.5974L169.37 71.5774C168.089 72.3193 166.635 72.71 165.155 72.71C163.675 72.71 162.221 72.3193 160.94 71.5774L136.78 57.6274C136.249 57.3268 135.808 56.8907 135.5 56.3637C135.193 55.8367 135.031 55.2376 135.03 54.6274V53.8174L153.25 53.7874Z" fill="url(#paint69_linear)"></path> <path d="M160.95 70.1176L136.78 56.1176C136.249 55.8103 135.807 55.3685 135.501 54.8367C135.194 54.3048 135.032 53.7016 135.032 53.0876C135.032 52.4736 135.194 51.8704 135.501 51.3386C135.807 50.8067 136.249 50.365 136.78 50.0576L160.95 36.1576C162.229 35.4157 163.682 35.0249 165.16 35.0249C166.639 35.0249 168.091 35.4157 169.37 36.1576L193.54 50.1576C194.072 50.465 194.513 50.9067 194.82 51.4386C195.127 51.9704 195.288 52.5736 195.288 53.1876C195.288 53.8016 195.127 54.4048 194.82 54.9367C194.513 55.4685 194.072 55.9103 193.54 56.2176L169.37 70.2176C168.081 70.9395 166.625 71.3102 165.147 71.2927C163.669 71.2752 162.222 70.87 160.95 70.1176Z" fill="#29ABE2"></path> <path d="M162.89 62.2876L149.89 54.7676C149.603 54.6028 149.365 54.3654 149.199 54.0792C149.033 53.793 148.946 53.4682 148.946 53.1376C148.946 52.8069 149.033 52.4821 149.199 52.196C149.365 51.9098 149.603 51.6723 149.89 51.5076L162.89 44.0276C163.578 43.6252 164.362 43.4131 165.16 43.4131C165.957 43.4131 166.741 43.6252 167.43 44.0276L180.43 51.5476C180.714 51.7144 180.949 51.9525 181.113 52.2384C181.277 52.5244 181.363 52.8481 181.363 53.1776C181.363 53.5071 181.277 53.8308 181.113 54.1167C180.949 54.4027 180.714 54.6408 180.43 54.8076L167.43 62.3276C166.736 62.72 165.951 62.9229 165.154 62.9159C164.357 62.9088 163.576 62.6922 162.89 62.2876Z" fill="url(#paint70_linear)"></path> </g> <g style="mix-blend-mode:multiply"> <path d="M349.629 228.038C347.631 228.043 345.668 227.518 343.939 226.518L314.089 209.288C313.151 208.756 312.371 207.985 311.828 207.053C311.286 206.121 311 205.062 311 203.983C311 202.905 311.286 201.846 311.828 200.914C312.371 199.982 313.151 199.211 314.089 198.678L343.939 181.478C345.669 180.485 347.629 179.963 349.624 179.963C351.619 179.963 353.579 180.485 355.309 181.478L385.159 198.678C386.09 199.212 386.863 199.981 387.401 200.909C387.939 201.837 388.223 202.891 388.223 203.963C388.223 205.036 387.939 206.09 387.401 207.018C386.863 207.946 386.09 208.715 385.159 209.248L355.309 226.518C353.583 227.518 351.623 228.043 349.629 228.038ZM344.289 225.918C345.913 226.855 347.754 227.348 349.629 227.348C351.503 227.348 353.345 226.855 354.969 225.918L384.819 208.678C385.641 208.204 386.324 207.521 386.799 206.698C387.274 205.876 387.524 204.943 387.524 203.993C387.524 203.044 387.274 202.111 386.799 201.289C386.324 200.466 385.641 199.783 384.819 199.308L354.969 182.078C353.344 181.145 351.503 180.654 349.629 180.654C347.755 180.654 345.914 181.145 344.289 182.078L314.439 199.318C313.616 199.792 312.933 200.474 312.458 201.295C311.983 202.117 311.733 203.049 311.733 203.998C311.733 204.948 311.983 205.88 312.458 206.701C312.933 207.523 313.616 208.205 314.439 208.678L344.289 225.918Z" fill="#CCCCCC"></path> </g> <path opacity="0.4" d="M379.758 187.079V190.349L355.738 204.019L347.938 199.519V196.239L371.968 182.579L379.758 187.079Z" fill="url(#paint71_linear)"></path> <path opacity="0.4" d="M318.659 187.079V190.349L342.679 204.019L350.479 199.519V196.239L326.459 182.579L318.659 187.079Z" fill="url(#paint72_linear)"></path> <g filter="url(#filter15_d)"> <path d="M341.099 196.679L346.339 193.679C347.206 193.18 348.188 192.918 349.189 192.918C350.189 192.918 351.171 193.18 352.039 193.679L357.279 196.679H369.739V205.219C369.741 205.638 369.632 206.051 369.423 206.414C369.214 206.778 368.912 207.08 368.549 207.289L352.039 216.799C351.167 217.304 350.177 217.571 349.169 217.571C348.161 217.571 347.171 217.304 346.299 216.799L329.839 207.299C329.473 207.091 329.17 206.79 328.961 206.426C328.752 206.062 328.644 205.648 328.649 205.229V196.679H341.099Z" fill="url(#paint73_linear)"></path> </g> <path d="M341.099 196.679L346.339 193.679C347.206 193.18 348.188 192.918 349.189 192.918C350.189 192.918 351.171 193.18 352.039 193.679L357.279 196.679H369.739V197.229C369.741 197.648 369.632 198.061 369.423 198.424C369.214 198.788 368.912 199.09 368.549 199.299L352.039 208.809C351.167 209.314 350.177 209.581 349.169 209.581C348.161 209.581 347.171 209.314 346.299 208.809L329.839 199.309C329.473 199.101 329.17 198.8 328.961 198.436C328.752 198.072 328.644 197.658 328.649 197.239V196.679H341.099Z" fill="url(#paint74_linear)"></path> <path d="M346.339 207.809L329.879 198.309C329.516 198.1 329.214 197.799 329.003 197.437C328.793 197.074 328.683 196.663 328.683 196.244C328.683 195.824 328.793 195.413 329.003 195.05C329.214 194.688 329.516 194.387 329.879 194.179L346.339 184.679C347.206 184.18 348.189 183.918 349.189 183.918C350.189 183.918 351.172 184.18 352.039 184.679L368.509 194.179C368.87 194.389 369.17 194.69 369.378 195.053C369.586 195.415 369.696 195.826 369.696 196.244C369.696 196.661 369.586 197.072 369.378 197.434C369.17 197.797 368.87 198.098 368.509 198.309L352.039 207.809C351.172 208.307 350.189 208.569 349.189 208.569C348.189 208.569 347.206 208.307 346.339 207.809Z" fill="url(#paint75_linear)"></path> <path d="M341.959 211.969L334.169 207.469V204.199L341.959 208.699V211.969Z" fill="#00FFFF"></path> <path d="M356.459 211.969L364.259 207.469V204.199L356.459 208.699V211.969Z" fill="#00FFFF"></path> <path d="M341.959 208.699V211.969L322.359 223.279L314.569 218.779V215.509L334.169 204.199L341.959 208.699Z" fill="url(#paint76_linear)"></path> <path d="M356.459 208.699V211.969L376.059 223.279L383.849 218.779V215.509L364.259 204.199L356.459 208.699Z" fill="url(#paint77_linear)"></path> <path opacity="0.3" d="M344.119 219.939L314.269 202.679C313.385 202.177 312.65 201.45 312.139 200.571C311.628 199.693 311.358 198.695 311.358 197.679C311.358 196.662 311.628 195.664 312.139 194.786C312.65 193.908 313.385 193.18 314.269 192.679L344.119 175.499C345.791 174.533 347.688 174.025 349.619 174.025C351.55 174.025 353.447 174.533 355.119 175.499L385.039 192.739C385.923 193.24 386.658 193.968 387.169 194.846C387.68 195.724 387.949 196.722 387.949 197.739C387.949 198.755 387.68 199.753 387.169 200.631C386.658 201.51 385.923 202.237 385.039 202.739L355.139 219.939C353.464 220.908 351.564 221.418 349.629 221.418C347.694 221.418 345.794 220.908 344.119 219.939Z" stroke="#4CEAF5" stroke-width="0.69" stroke-miterlimit="10"></path> <path d="M345.35 197.165L351.37 193.685V188.515L345.35 191.995V197.165Z" fill="#445183"></path> <path d="M349.67 198.585L355.69 195.105L351.37 192.615L345.35 196.095L349.67 198.585Z" fill="url(#paint78_linear)"></path> <path d="M345.35 191.995V196.095L349.67 198.585V199.655L345.35 197.165L343.72 196.225V191.055L345.35 191.995Z" fill="#445183"></path> <path d="M336 197.655L337.58 198.565L356.63 185.745L358.21 168.935L356.63 168.025L336 179.935V197.655Z" fill="url(#paint79_linear)"></path> <path d="M337.58 198.565L358.21 186.655V168.935L337.58 180.845V198.565Z" fill="#3A50C6"></path> <path d="M337.58 198.565L358.21 186.655V168.935L337.58 180.845V198.565Z" fill="#00FFFF"></path> <path d="M349.67 199.655L355.69 196.175V195.105L349.67 198.585V199.655Z" fill="url(#paint80_linear)"></path> <path d="M337.58 198.565L358.21 186.655V183.795L337.58 195.705V198.565Z" fill="url(#paint81_linear)"></path> <g style="mix-blend-mode:multiply"> <path d="M38.6289 118.038C36.6313 118.043 34.6682 117.518 32.9389 116.518L3.08886 99.2885C2.15103 98.7562 1.37108 97.9848 0.828474 97.0529C0.285867 96.1209 0 95.0619 0 93.9835C0 92.9051 0.285867 91.846 0.828474 90.9141C1.37108 89.9822 2.15103 89.2108 3.08886 88.6785L32.9389 71.4785C34.669 70.4854 36.629 69.9629 38.6239 69.9629C40.6187 69.9629 42.5788 70.4854 44.3089 71.4785L74.1589 88.6785C75.0898 89.2115 75.8634 89.981 76.4014 90.909C76.9395 91.8371 77.2228 92.8908 77.2228 93.9635C77.2228 95.0362 76.9395 96.0899 76.4014 97.018C75.8634 97.946 75.0898 98.7155 74.1589 99.2485L44.3089 116.518C42.5832 117.518 40.6233 118.043 38.6289 118.038ZM33.2889 115.918C34.9128 116.855 36.7543 117.348 38.6289 117.348C40.5034 117.348 42.345 116.855 43.9689 115.918L73.8189 98.6785C74.6412 98.2036 75.3241 97.5207 75.7988 96.6983C76.2736 95.8759 76.5235 94.9431 76.5235 93.9935C76.5235 93.0439 76.2736 92.111 75.7988 91.2887C75.3241 90.4663 74.6412 89.7833 73.8189 89.3085L43.9689 72.0785C42.344 71.145 40.5028 70.6538 38.6289 70.6538C36.7549 70.6538 34.9137 71.145 33.2889 72.0785L3.43886 89.3185C2.61633 89.792 1.93311 90.4739 1.45805 91.2955C0.982984 92.1171 0.732852 93.0494 0.732852 93.9985C0.732852 94.9476 0.982984 95.8799 1.45805 96.7015C1.93311 97.5231 2.61633 98.205 3.43886 98.6785L33.2889 115.918Z" fill="#CCCCCC"></path> </g> <path opacity="0.4" d="M68.7585 77.0786V80.3486L44.7385 94.0186L36.9385 89.5186V86.2386L60.9685 72.5786L68.7585 77.0786Z" fill="url(#paint82_linear)"></path> <path opacity="0.4" d="M7.65918 77.0786V80.3486L31.6792 94.0186L39.4792 89.5186V86.2386L15.4592 72.5786L7.65918 77.0786Z" fill="url(#paint83_linear)"></path> <g filter="url(#filter16_d)"> <path d="M30.0986 86.6785L35.3386 83.6785C36.2057 83.1802 37.1884 82.918 38.1886 82.918C39.1887 82.918 40.1714 83.1802 41.0386 83.6785L46.2786 86.6785H58.7386V95.2185C58.7412 95.638 58.6324 96.0507 58.4233 96.4143C58.2142 96.778 57.9124 97.0797 57.5486 97.2885L41.0386 106.799C40.1667 107.304 39.1766 107.571 38.1686 107.571C37.1606 107.571 36.1705 107.304 35.2986 106.799L18.8386 97.2985C18.4734 97.0913 18.1704 96.79 17.9611 96.4259C17.7518 96.0619 17.6439 95.6484 17.6486 95.2285V86.6785H30.0986Z" fill="url(#paint84_linear)"></path> </g> <path d="M30.0986 86.6785L35.3386 83.6785C36.2057 83.1802 37.1884 82.918 38.1886 82.918C39.1887 82.918 40.1714 83.1802 41.0386 83.6785L46.2786 86.6785H58.7386V87.2285C58.7412 87.648 58.6324 88.0607 58.4233 88.4243C58.2142 88.788 57.9124 89.0897 57.5486 89.2985L41.0386 98.8085C40.1667 99.3143 39.1766 99.5807 38.1686 99.5807C37.1606 99.5807 36.1705 99.3143 35.2986 98.8085L18.8386 89.3085C18.4734 89.1013 18.1704 88.8 17.9611 88.4359C17.7518 88.0719 17.6439 87.6584 17.6486 87.2385V86.6785H30.0986Z" fill="url(#paint85_linear)"></path> <path d="M35.3393 97.8085L18.8793 88.3085C18.5157 88.1002 18.2135 87.7995 18.0034 87.4369C17.7933 87.0743 17.6826 86.6626 17.6826 86.2435C17.6826 85.8245 17.7933 85.4128 18.0034 85.0502C18.2135 84.6876 18.5157 84.3869 18.8793 84.1785L35.3393 74.6785C36.2065 74.1802 37.1892 73.918 38.1893 73.918C39.1895 73.918 40.1722 74.1802 41.0393 74.6785L57.5093 84.1785C57.8704 84.3889 58.17 84.6903 58.3782 85.0527C58.5865 85.415 58.6961 85.8256 58.6961 86.2435C58.6961 86.6615 58.5865 87.0721 58.3782 87.4344C58.17 87.7967 57.8704 88.0981 57.5093 88.3085L41.0393 97.8085C40.1722 98.3069 39.1895 98.5691 38.1893 98.5691C37.1892 98.5691 36.2065 98.3069 35.3393 97.8085Z" fill="url(#paint86_linear)"></path> <path d="M30.9589 101.969L23.1689 97.4687V94.1987L30.9589 98.6987V101.969Z" fill="#00FFFF"></path> <path d="M45.459 101.969L53.259 97.4687V94.1987L45.459 98.6987V101.969Z" fill="#00FFFF"></path> <path d="M30.9593 98.6987V101.969L11.3593 113.279L3.56934 108.779V105.509L23.1693 94.1987L30.9593 98.6987Z" fill="url(#paint87_linear)"></path> <path d="M45.459 98.6987V101.969L65.059 113.279L72.849 108.779V105.509L53.259 94.1987L45.459 98.6987Z" fill="url(#paint88_linear)"></path> <path opacity="0.3" d="M33.1189 109.939L3.26894 92.6786C2.38522 92.1768 1.6503 91.4497 1.13902 90.5713C0.627752 89.693 0.358398 88.6949 0.358398 87.6786C0.358398 86.6623 0.627752 85.6642 1.13902 84.7859C1.6503 83.9076 2.38522 83.1805 3.26894 82.6786L33.1189 65.4986C34.7912 64.5332 36.688 64.0249 38.6189 64.0249C40.5498 64.0249 42.4467 64.5332 44.1189 65.4986L74.0389 82.7386C74.9227 83.2405 75.6576 83.9676 76.1689 84.8459C76.6801 85.7242 76.9495 86.7223 76.9495 87.7386C76.9495 88.7549 76.6801 89.753 76.1689 90.6313C75.6576 91.5097 74.9227 92.2368 74.0389 92.7386L44.1389 109.939C42.4644 110.908 40.5638 111.418 38.6289 111.418C36.6941 111.418 34.7935 110.908 33.1189 109.939Z" stroke="#4CEAF5" stroke-width="0.69" stroke-miterlimit="10"></path> <path d="M34.3496 87.1651L40.3696 83.6851V78.5151L34.3496 81.9951V87.1651Z" fill="#445183"></path> <path d="M38.6696 88.5847L44.6896 85.1047L40.3696 82.6147L34.3496 86.0947L38.6696 88.5847Z" fill="url(#paint89_linear)"></path> <path d="M34.3497 81.9947V86.0947L38.6697 88.5847V89.6547L34.3497 87.1647L32.7197 86.2247V81.0547L34.3497 81.9947Z" fill="#445183"></path> <path d="M25 87.6549L26.58 88.5649L45.63 75.7449L47.21 58.9349L45.63 58.0249L25 69.9349V87.6549Z" fill="url(#paint90_linear)"></path> <path d="M26.5801 88.5651L47.2101 76.6551V58.9351L26.5801 70.8451V88.5651Z" fill="#3A50C6"></path> <path d="M26.5801 88.5651L47.2101 76.6551V58.9351L26.5801 70.8451V88.5651Z" fill="#00FFFF"></path> <path d="M38.6699 89.655L44.6899 86.175V85.105L38.6699 88.585V89.655Z" fill="url(#paint91_linear)"></path> <path d="M26.5801 88.5649L47.2101 76.6549V73.7949L26.5801 85.7049V88.5649Z" fill="url(#paint92_linear)"></path> <defs> <filter id="filter0_d" x="253.648" y="155.918" width="69.0902" height="52.6527" filterUnits="userSpaceOnUse" color-interpolation-filters="sRGB"> <feFlood flood-opacity="0" result="BackgroundImageFix"></feFlood> <feColorMatrix in="SourceAlpha" type="matrix" values="0 0 0 0 0 0 0 0 0 0 0 0 0 0 0 0 0 0 127 0"></feColorMatrix> <feOffset dy="14"></feOffset> <feGaussianBlur stdDeviation="7"></feGaussianBlur> <feColorMatrix type="matrix" values="0 0 0 0 0.0873438 0 0 0 0 0.11115 0 0 0 0 0.179167 0 0 0 0.65 0"></feColorMatrix> <feBlend mode="normal" in2="BackgroundImageFix" result="effect1_dropShadow"></feBlend> <feBlend mode="normal" in="SourceGraphic" in2="effect1_dropShadow" result="shape"></feBlend> </filter> <filter id="filter1_d" x="193.648" y="192.918" width="69.0902" height="52.6527" filterUnits="userSpaceOnUse" color-interpolation-filters="sRGB"> <feFlood flood-opacity="0" result="BackgroundImageFix"></feFlood> <feColorMatrix in="SourceAlpha" type="matrix" values="0 0 0 0 0 0 0 0 0 0 0 0 0 0 0 0 0 0 127 0"></feColorMatrix> <feOffset dy="14"></feOffset> <feGaussianBlur stdDeviation="7"></feGaussianBlur> <feColorMatrix type="matrix" values="0 0 0 0 0.0873438 0 0 0 0 0.11115 0 0 0 0 0.179167 0 0 0 0.65 0"></feColorMatrix> <feBlend mode="normal" in2="BackgroundImageFix" result="effect1_dropShadow"></feBlend> <feBlend mode="normal" in="SourceGraphic" in2="effect1_dropShadow" result="shape"></feBlend> </filter> <filter id="filter2_d" x="203.649" y="174.364" width="49.0902" height="32.6527" filterUnits="userSpaceOnUse" color-interpolation-filters="sRGB"> <feFlood flood-opacity="0" result="BackgroundImageFix"></feFlood> <feColorMatrix in="SourceAlpha" type="matrix" values="0 0 0 0 0 0 0 0 0 0 0 0 0 0 0 0 0 0 127 0"></feColorMatrix> <feOffset dy="4"></feOffset> <feGaussianBlur stdDeviation="2"></feGaussianBlur> <feColorMatrix type="matrix" values="0 0 0 0 0 0 0 0 0 0 0 0 0 0 0 0 0 0 0.25 0"></feColorMatrix> <feBlend mode="normal" in2="BackgroundImageFix" result="effect1_dropShadow"></feBlend> <feBlend mode="normal" in="SourceGraphic" in2="effect1_dropShadow" result="shape"></feBlend> </filter> <filter id="filter3_d" x="69.0977" y="83.7036" width="192.07" height="123.667" filterUnits="userSpaceOnUse" color-interpolation-filters="sRGB"> <feFlood flood-opacity="0" result="BackgroundImageFix"></feFlood> <feColorMatrix in="SourceAlpha" type="matrix" values="0 0 0 0 0 0 0 0 0 0 0 0 0 0 0 0 0 0 127 0"></feColorMatrix> <feOffset dy="14"></feOffset> <feGaussianBlur stdDeviation="7"></feGaussianBlur> <feColorMatrix type="matrix" values="0 0 0 0 0.0873438 0 0 0 0 0.11115 0 0 0 0 0.179167 0 0 0 0.65 0"></feColorMatrix> <feBlend mode="normal" in2="BackgroundImageFix" result="effect1_dropShadow"></feBlend> <feBlend mode="normal" in="SourceGraphic" in2="effect1_dropShadow" result="shape"></feBlend> </filter> <filter id="filter4_d" x="66.6484" y="192.918" width="69.0902" height="52.6527" filterUnits="userSpaceOnUse" color-interpolation-filters="sRGB"> <feFlood flood-opacity="0" result="BackgroundImageFix"></feFlood> <feColorMatrix in="SourceAlpha" type="matrix" values="0 0 0 0 0 0 0 0 0 0 0 0 0 0 0 0 0 0 127 0"></feColorMatrix> <feOffset dy="14"></feOffset> <feGaussianBlur stdDeviation="7"></feGaussianBlur> <feColorMatrix type="matrix" values="0 0 0 0 0.0873438 0 0 0 0 0.11115 0 0 0 0 0.179167 0 0 0 0.65 0"></feColorMatrix> <feBlend mode="normal" in2="BackgroundImageFix" result="effect1_dropShadow"></feBlend> <feBlend mode="normal" in="SourceGraphic" in2="effect1_dropShadow" result="shape"></feBlend> </filter> <filter id="filter5_d" x="253.648" y="19.918" width="69.0902" height="52.6527" filterUnits="userSpaceOnUse" color-interpolation-filters="sRGB"> <feFlood flood-opacity="0" result="BackgroundImageFix"></feFlood> <feColorMatrix in="SourceAlpha" type="matrix" values="0 0 0 0 0 0 0 0 0 0 0 0 0 0 0 0 0 0 127 0"></feColorMatrix> <feOffset dy="14"></feOffset> <feGaussianBlur stdDeviation="7"></feGaussianBlur> <feColorMatrix type="matrix" values="0 0 0 0 0.0873438 0 0 0 0 0.11115 0 0 0 0 0.179167 0 0 0 0.65 0"></feColorMatrix> <feBlend mode="normal" in2="BackgroundImageFix" result="effect1_dropShadow"></feBlend> <feBlend mode="normal" in="SourceGraphic" in2="effect1_dropShadow" result="shape"></feBlend> </filter> <filter id="filter6_d" x="85" y="95.0249" width="74.2885" height="56.2153" filterUnits="userSpaceOnUse" color-interpolation-filters="sRGB"> <feFlood flood-opacity="0" result="BackgroundImageFix"></feFlood> <feColorMatrix in="SourceAlpha" type="matrix" values="0 0 0 0 0 0 0 0 0 0 0 0 0 0 0 0 0 0 127 0"></feColorMatrix> <feOffset dy="4"></feOffset> <feGaussianBlur stdDeviation="3.5"></feGaussianBlur> <feColorMatrix type="matrix" values="0 0 0 0 0 0 0 0 0 0.937255 0 0 0 0 0.968627 0 0 0 0.5 0"></feColorMatrix> <feBlend mode="normal" in2="BackgroundImageFix" result="effect1_dropShadow"></feBlend> <feBlend mode="normal" in="SourceGraphic" in2="effect1_dropShadow" result="shape"></feBlend> </filter> <filter id="filter7_d" x="131" y="71.0249" width="68.2885" height="50.2153" filterUnits="userSpaceOnUse" color-interpolation-filters="sRGB"> <feFlood flood-opacity="0" result="BackgroundImageFix"></feFlood> <feColorMatrix in="SourceAlpha" type="matrix" values="0 0 0 0 0 0 0 0 0 0 0 0 0 0 0 0 0 0 127 0"></feColorMatrix> <feOffset dy="4"></feOffset> <feGaussianBlur stdDeviation="2"></feGaussianBlur> <feColorMatrix type="matrix" values="0 0 0 0 0 0 0 0 0 0 0 0 0 0 0 0 0 0 0.25 0"></feColorMatrix> <feBlend mode="normal" in2="BackgroundImageFix" result="effect1_dropShadow"></feBlend> <feBlend mode="normal" in="SourceGraphic" in2="effect1_dropShadow" result="shape"></feBlend> </filter> <filter id="filter8_d" x="171" y="95.0249" width="74.2885" height="56.2153" filterUnits="userSpaceOnUse" color-interpolation-filters="sRGB"> <feFlood flood-opacity="0" result="BackgroundImageFix"></feFlood> <feColorMatrix in="SourceAlpha" type="matrix" values="0 0 0 0 0 0 0 0 0 0 0 0 0 0 0 0 0 0 127 0"></feColorMatrix> <feOffset dy="4"></feOffset> <feGaussianBlur stdDeviation="3.5"></feGaussianBlur> <feColorMatrix type="matrix" values="0 0 0 0 0 0 0 0 0 0.937255 0 0 0 0 0.968627 0 0 0 0.5 0"></feColorMatrix> <feBlend mode="normal" in2="BackgroundImageFix" result="effect1_dropShadow"></feBlend> <feBlend mode="normal" in="SourceGraphic" in2="effect1_dropShadow" result="shape"></feBlend> </filter> <filter id="filter9_d" x="88" y="86.0249" width="68.2885" height="50.2153" filterUnits="userSpaceOnUse" color-interpolation-filters="sRGB"> <feFlood flood-opacity="0" result="BackgroundImageFix"></feFlood> <feColorMatrix in="SourceAlpha" type="matrix" values="0 0 0 0 0 0 0 0 0 0 0 0 0 0 0 0 0 0 127 0"></feColorMatrix> <feOffset dy="4"></feOffset> <feGaussianBlur stdDeviation="2"></feGaussianBlur> <feColorMatrix type="matrix" values="0 0 0 0 0 0 0 0 0 0 0 0 0 0 0 0 0 0 0.25 0"></feColorMatrix> <feBlend mode="normal" in2="BackgroundImageFix" result="effect1_dropShadow"></feBlend> <feBlend mode="normal" in="SourceGraphic" in2="effect1_dropShadow" result="shape"></feBlend> </filter> <filter id="filter10_d" x="131" y="59.0249" width="68.2885" height="50.2153" filterUnits="userSpaceOnUse" color-interpolation-filters="sRGB"> <feFlood flood-opacity="0" result="BackgroundImageFix"></feFlood> <feColorMatrix in="SourceAlpha" type="matrix" values="0 0 0 0 0 0 0 0 0 0 0 0 0 0 0 0 0 0 127 0"></feColorMatrix> <feOffset dy="4"></feOffset> <feGaussianBlur stdDeviation="2"></feGaussianBlur> <feColorMatrix type="matrix" values="0 0 0 0 0 0 0 0 0 0 0 0 0 0 0 0 0 0 0.25 0"></feColorMatrix> <feBlend mode="normal" in2="BackgroundImageFix" result="effect1_dropShadow"></feBlend> <feBlend mode="normal" in="SourceGraphic" in2="effect1_dropShadow" result="shape"></feBlend> </filter> <filter id="filter11_d" x="174" y="86.0249" width="68.2885" height="50.2153" filterUnits="userSpaceOnUse" color-interpolation-filters="sRGB"> <feFlood flood-opacity="0" result="BackgroundImageFix"></feFlood> <feColorMatrix in="SourceAlpha" type="matrix" values="0 0 0 0 0 0 0 0 0 0 0 0 0 0 0 0 0 0 127 0"></feColorMatrix> <feOffset dy="4"></feOffset> <feGaussianBlur stdDeviation="2"></feGaussianBlur> <feColorMatrix type="matrix" values="0 0 0 0 0 0 0 0 0 0 0 0 0 0 0 0 0 0 0.25 0"></feColorMatrix> <feBlend mode="normal" in2="BackgroundImageFix" result="effect1_dropShadow"></feBlend> <feBlend mode="normal" in="SourceGraphic" in2="effect1_dropShadow" result="shape"></feBlend> </filter> <filter id="filter12_d" x="88" y="74.0249" width="68.2885" height="50.2153" filterUnits="userSpaceOnUse" color-interpolation-filters="sRGB"> <feFlood flood-opacity="0" result="BackgroundImageFix"></feFlood> <feColorMatrix in="SourceAlpha" type="matrix" values="0 0 0 0 0 0 0 0 0 0 0 0 0 0 0 0 0 0 127 0"></feColorMatrix> <feOffset dy="4"></feOffset> <feGaussianBlur stdDeviation="2"></feGaussianBlur> <feColorMatrix type="matrix" values="0 0 0 0 0 0 0 0 0 0 0 0 0 0 0 0 0 0 0.25 0"></feColorMatrix> <feBlend mode="normal" in2="BackgroundImageFix" result="effect1_dropShadow"></feBlend> <feBlend mode="normal" in="SourceGraphic" in2="effect1_dropShadow" result="shape"></feBlend> </filter> <filter id="filter13_d" x="131" y="47.0249" width="68.2885" height="50.2153" filterUnits="userSpaceOnUse" color-interpolation-filters="sRGB"> <feFlood flood-opacity="0" result="BackgroundImageFix"></feFlood> <feColorMatrix in="SourceAlpha" type="matrix" values="0 0 0 0 0 0 0 0 0 0 0 0 0 0 0 0 0 0 127 0"></feColorMatrix> <feOffset dy="4"></feOffset> <feGaussianBlur stdDeviation="2"></feGaussianBlur> <feColorMatrix type="matrix" values="0 0 0 0 0 0 0 0 0 0 0 0 0 0 0 0 0 0 0.25 0"></feColorMatrix> <feBlend mode="normal" in2="BackgroundImageFix" result="effect1_dropShadow"></feBlend> <feBlend mode="normal" in="SourceGraphic" in2="effect1_dropShadow" result="shape"></feBlend> </filter> <filter id="filter14_d" x="131" y="35.0249" width="68.2885" height="50.2153" filterUnits="userSpaceOnUse" color-interpolation-filters="sRGB"> <feFlood flood-opacity="0" result="BackgroundImageFix"></feFlood> <feColorMatrix in="SourceAlpha" type="matrix" values="0 0 0 0 0 0 0 0 0 0 0 0 0 0 0 0 0 0 127 0"></feColorMatrix> <feOffset dy="4"></feOffset> <feGaussianBlur stdDeviation="2"></feGaussianBlur> <feColorMatrix type="matrix" values="0 0 0 0 0 0 0 0 0 0 0 0 0 0 0 0 0 0 0.25 0"></feColorMatrix> <feBlend mode="normal" in2="BackgroundImageFix" result="effect1_dropShadow"></feBlend> <feBlend mode="normal" in="SourceGraphic" in2="effect1_dropShadow" result="shape"></feBlend> </filter> <filter id="filter15_d" x="314.648" y="192.918" width="69.0902" height="52.6527" filterUnits="userSpaceOnUse" color-interpolation-filters="sRGB"> <feFlood flood-opacity="0" result="BackgroundImageFix"></feFlood> <feColorMatrix in="SourceAlpha" type="matrix" values="0 0 0 0 0 0 0 0 0 0 0 0 0 0 0 0 0 0 127 0"></feColorMatrix> <feOffset dy="14"></feOffset> <feGaussianBlur stdDeviation="7"></feGaussianBlur> <feColorMatrix type="matrix" values="0 0 0 0 0.0873438 0 0 0 0 0.11115 0 0 0 0 0.179167 0 0 0 0.65 0"></feColorMatrix> <feBlend mode="normal" in2="BackgroundImageFix" result="effect1_dropShadow"></feBlend> <feBlend mode="normal" in="SourceGraphic" in2="effect1_dropShadow" result="shape"></feBlend> </filter> <filter id="filter16_d" x="3.64844" y="82.918" width="69.0902" height="52.6527" filterUnits="userSpaceOnUse" color-interpolation-filters="sRGB"> <feFlood flood-opacity="0" result="BackgroundImageFix"></feFlood> <feColorMatrix in="SourceAlpha" type="matrix" values="0 0 0 0 0 0 0 0 0 0 0 0 0 0 0 0 0 0 127 0"></feColorMatrix> <feOffset dy="14"></feOffset> <feGaussianBlur stdDeviation="7"></feGaussianBlur> <feColorMatrix type="matrix" values="0 0 0 0 0.0873438 0 0 0 0 0.11115 0 0 0 0 0.179167 0 0 0 0.65 0"></feColorMatrix> <feBlend mode="normal" in2="BackgroundImageFix" result="effect1_dropShadow"></feBlend> <feBlend mode="normal" in="SourceGraphic" in2="effect1_dropShadow" result="shape"></feBlend> </filter> <linearGradient id="paint0_linear" x1="294" y1="163.025" x2="313.074" y2="149.905" gradientUnits="userSpaceOnUse"> <stop stop-color="#00FFFF"></stop> <stop offset="0.317708" stop-color="#00FFFF" stop-opacity="0.48"></stop> <stop offset="1" stop-color="#00FFFF" stop-opacity="0"></stop> </linearGradient> <linearGradient id="paint1_linear" x1="280.5" y1="159.025" x2="262.71" y2="150.103" gradientUnits="userSpaceOnUse"> <stop stop-color="#00FFFF"></stop> <stop offset="0.317708" stop-color="#00FFFF" stop-opacity="0.48"></stop> <stop offset="1" stop-color="#00FFFF" stop-opacity="0"></stop> </linearGradient> <linearGradient id="paint2_linear" x1="286.396" y1="168.24" x2="311.536" y2="168.24" gradientUnits="userSpaceOnUse"> <stop stop-color="#2D385C"></stop> <stop offset="1" stop-color="#29ABE2"></stop> </linearGradient> <linearGradient id="paint3_linear" x1="286.396" y1="164.247" x2="311.536" y2="164.247" gradientUnits="userSpaceOnUse"> <stop stop-color="#687191"></stop> <stop offset="1" stop-color="#61D0FF"></stop> </linearGradient> <linearGradient id="paint4_linear" x1="286.395" y1="159.24" x2="311.488" y2="159.24" gradientUnits="userSpaceOnUse"> <stop stop-color="#2D385C"></stop> <stop offset="1" stop-color="#29ABE2"></stop> </linearGradient> <linearGradient id="paint5_linear" x1="278.901" y1="166.866" x2="264.5" y2="186.025" gradientUnits="userSpaceOnUse"> <stop stop-color="#00FFFF"></stop> <stop offset="0.395833" stop-color="#00FFFF" stop-opacity="0.56"></stop> <stop offset="1" stop-color="#00FFFF" stop-opacity="0"></stop> </linearGradient> <linearGradient id="paint6_linear" x1="295.711" y1="166.866" x2="313" y2="186.025" gradientUnits="userSpaceOnUse"> <stop stop-color="#00FFFF"></stop> <stop offset="0.395833" stop-color="#00FFFF" stop-opacity="0.56"></stop> <stop offset="1" stop-color="#00FFFF" stop-opacity="0"></stop> </linearGradient> <linearGradient id="paint7_linear" x1="234" y1="200.025" x2="253.074" y2="186.905" gradientUnits="userSpaceOnUse"> <stop stop-color="#00FFFF"></stop> <stop offset="0.317708" stop-color="#00FFFF" stop-opacity="0.48"></stop> <stop offset="1" stop-color="#00FFFF" stop-opacity="0"></stop> </linearGradient> <linearGradient id="paint8_linear" x1="220.5" y1="196.025" x2="202.71" y2="187.103" gradientUnits="userSpaceOnUse"> <stop stop-color="#00FFFF"></stop> <stop offset="0.317708" stop-color="#00FFFF" stop-opacity="0.48"></stop> <stop offset="1" stop-color="#00FFFF" stop-opacity="0"></stop> </linearGradient> <linearGradient id="paint9_linear" x1="226.396" y1="205.24" x2="251.536" y2="205.24" gradientUnits="userSpaceOnUse"> <stop stop-color="#2D385C"></stop> <stop offset="1" stop-color="#29ABE2"></stop> </linearGradient> <linearGradient id="paint10_linear" x1="226.396" y1="201.247" x2="251.536" y2="201.247" gradientUnits="userSpaceOnUse"> <stop stop-color="#687191"></stop> <stop offset="1" stop-color="#61D0FF"></stop> </linearGradient> <linearGradient id="paint11_linear" x1="226.395" y1="196.24" x2="251.488" y2="196.24" gradientUnits="userSpaceOnUse"> <stop stop-color="#2D385C"></stop> <stop offset="1" stop-color="#29ABE2"></stop> </linearGradient> <linearGradient id="paint12_linear" x1="218.901" y1="203.866" x2="204.5" y2="223.025" gradientUnits="userSpaceOnUse"> <stop stop-color="#00FFFF"></stop> <stop offset="0.395833" stop-color="#00FFFF" stop-opacity="0.56"></stop> <stop offset="1" stop-color="#00FFFF" stop-opacity="0"></stop> </linearGradient> <linearGradient id="paint13_linear" x1="235.711" y1="203.866" x2="253" y2="223.025" gradientUnits="userSpaceOnUse"> <stop stop-color="#00FFFF"></stop> <stop offset="0.395833" stop-color="#00FFFF" stop-opacity="0.56"></stop> <stop offset="1" stop-color="#00FFFF" stop-opacity="0"></stop> </linearGradient> <linearGradient id="paint14_linear" x1="234.001" y1="181.471" x2="246.919" y2="163.605" gradientUnits="userSpaceOnUse"> <stop stop-color="#00FFFF"></stop> <stop offset="0.317708" stop-color="#00FFFF" stop-opacity="0.48"></stop> <stop offset="1" stop-color="#00FFFF" stop-opacity="0"></stop> </linearGradient> <linearGradient id="paint15_linear" x1="224.5" y1="180.525" x2="210.414" y2="162.483" gradientUnits="userSpaceOnUse"> <stop stop-color="#00FFFF"></stop> <stop offset="0.317708" stop-color="#00FFFF" stop-opacity="0.48"></stop> <stop offset="1" stop-color="#00FFFF" stop-opacity="0"></stop> </linearGradient> <linearGradient id="paint16_linear" x1="226.397" y1="186.687" x2="251.537" y2="186.687" gradientUnits="userSpaceOnUse"> <stop stop-color="#2D385C"></stop> <stop offset="1" stop-color="#29ABE2"></stop> </linearGradient> <linearGradient id="paint17_linear" x1="226.397" y1="182.693" x2="251.537" y2="182.693" gradientUnits="userSpaceOnUse"> <stop stop-color="#687191"></stop> <stop offset="1" stop-color="#61D0FF"></stop> </linearGradient> <linearGradient id="paint18_linear" x1="226.395" y1="177.686" x2="251.488" y2="177.686" gradientUnits="userSpaceOnUse"> <stop stop-color="#2D385C"></stop> <stop offset="1" stop-color="#29ABE2"></stop> </linearGradient> <linearGradient id="paint19_linear" x1="218.901" y1="185.312" x2="204.5" y2="204.471" gradientUnits="userSpaceOnUse"> <stop stop-color="#00FFFF"></stop> <stop offset="0.395833" stop-color="#00FFFF" stop-opacity="0.56"></stop> <stop offset="1" stop-color="#00FFFF" stop-opacity="0"></stop> </linearGradient> <linearGradient id="paint20_linear" x1="235.711" y1="185.312" x2="253" y2="204.471" gradientUnits="userSpaceOnUse"> <stop stop-color="#00FFFF"></stop> <stop offset="0.395833" stop-color="#00FFFF" stop-opacity="0.56"></stop> <stop offset="1" stop-color="#00FFFF" stop-opacity="0"></stop> </linearGradient> <linearGradient id="paint21_linear" x1="157.955" y1="131.521" x2="258.337" y2="131.521" gradientUnits="userSpaceOnUse"> <stop stop-color="#2D385C"></stop> <stop offset="1" stop-color="#29ABE2"></stop> </linearGradient> <linearGradient id="paint22_linear" x1="157.955" y1="127.528" x2="258.337" y2="127.528" gradientUnits="userSpaceOnUse"> <stop stop-color="#687191"></stop> <stop offset="1" stop-color="#61D0FF"></stop> </linearGradient> <linearGradient id="paint23_linear" x1="157.978" y1="122.518" x2="258.388" y2="122.518" gradientUnits="userSpaceOnUse"> <stop stop-color="#2D385C"></stop> <stop offset="1" stop-color="#29ABE2"></stop> </linearGradient> <linearGradient id="paint24_linear" x1="233.252" y1="130.692" x2="254.252" y2="144.692" gradientUnits="userSpaceOnUse"> <stop stop-color="#00FFFF"></stop> <stop offset="0.395833" stop-color="#00FFFF" stop-opacity="0.56"></stop> <stop offset="1" stop-color="#00FFFF" stop-opacity="0"></stop> </linearGradient> <linearGradient id="paint25_linear" x1="172.252" y1="165.692" x2="190.5" y2="181.525" gradientUnits="userSpaceOnUse"> <stop stop-color="#00FFFF"></stop> <stop offset="0.395833" stop-color="#00FFFF" stop-opacity="0.56"></stop> <stop offset="1" stop-color="#00FFFF" stop-opacity="0"></stop> </linearGradient> <linearGradient id="paint26_linear" x1="94" y1="130.025" x2="78" y2="150.025" gradientUnits="userSpaceOnUse"> <stop stop-color="#00FFFF"></stop> <stop offset="0.317708" stop-color="#00FFFF" stop-opacity="0.48"></stop> <stop offset="1" stop-color="#00FFFF" stop-opacity="0"></stop> </linearGradient> <linearGradient id="paint27_linear" x1="156.5" y1="166.025" x2="139" y2="182.025" gradientUnits="userSpaceOnUse"> <stop stop-color="#00FFFF"></stop> <stop offset="0.395833" stop-color="#00FFFF" stop-opacity="0.56"></stop> <stop offset="1" stop-color="#00FFFF" stop-opacity="0"></stop> </linearGradient> <linearGradient id="paint28_linear" x1="122" y1="122.025" x2="122" y2="164.711" gradientUnits="userSpaceOnUse"> <stop stop-color="#00FFFF"></stop> <stop offset="0.520833" stop-color="#00FFFF" stop-opacity="0.35"></stop> <stop offset="1" stop-color="#00FFFF" stop-opacity="0"></stop> </linearGradient> <linearGradient id="paint29_linear" x1="208" y1="122.025" x2="208" y2="164.711" gradientUnits="userSpaceOnUse"> <stop stop-color="#00FFFF"></stop> <stop offset="0.520833" stop-color="#00FFFF" stop-opacity="0.35"></stop> <stop offset="1" stop-color="#00FFFF" stop-opacity="0"></stop> </linearGradient> <linearGradient id="paint30_linear" x1="107" y1="200.025" x2="118.984" y2="184.136" gradientUnits="userSpaceOnUse"> <stop stop-color="#00FFFF"></stop> <stop offset="0.317708" stop-color="#00FFFF" stop-opacity="0.48"></stop> <stop offset="1" stop-color="#00FFFF" stop-opacity="0"></stop> </linearGradient> <linearGradient id="paint31_linear" x1="93.5" y1="196.025" x2="80.5912" y2="183.444" gradientUnits="userSpaceOnUse"> <stop stop-color="#00FFFF"></stop> <stop offset="0.317708" stop-color="#00FFFF" stop-opacity="0.48"></stop> <stop offset="1" stop-color="#00FFFF" stop-opacity="0"></stop> </linearGradient> <linearGradient id="paint32_linear" x1="99.3959" y1="205.24" x2="124.536" y2="205.24" gradientUnits="userSpaceOnUse"> <stop stop-color="#2D385C"></stop> <stop offset="1" stop-color="#29ABE2"></stop> </linearGradient> <linearGradient id="paint33_linear" x1="99.3959" y1="201.247" x2="124.536" y2="201.247" gradientUnits="userSpaceOnUse"> <stop stop-color="#687191"></stop> <stop offset="1" stop-color="#61D0FF"></stop> </linearGradient> <linearGradient id="paint34_linear" x1="99.395" y1="196.24" x2="124.488" y2="196.24" gradientUnits="userSpaceOnUse"> <stop stop-color="#2D385C"></stop> <stop offset="1" stop-color="#29ABE2"></stop> </linearGradient> <linearGradient id="paint35_linear" x1="91.9014" y1="203.866" x2="77.5" y2="223.025" gradientUnits="userSpaceOnUse"> <stop stop-color="#00FFFF"></stop> <stop offset="0.395833" stop-color="#00FFFF" stop-opacity="0.56"></stop> <stop offset="1" stop-color="#00FFFF" stop-opacity="0"></stop> </linearGradient> <linearGradient id="paint36_linear" x1="108.711" y1="203.866" x2="126" y2="223.025" gradientUnits="userSpaceOnUse"> <stop stop-color="#00FFFF"></stop> <stop offset="0.395833" stop-color="#00FFFF" stop-opacity="0.56"></stop> <stop offset="1" stop-color="#00FFFF" stop-opacity="0"></stop> </linearGradient> <linearGradient id="paint37_linear" x1="294" y1="27.0249" x2="305.984" y2="11.1355" gradientUnits="userSpaceOnUse"> <stop stop-color="#00FFFF"></stop> <stop offset="0.317708" stop-color="#00FFFF" stop-opacity="0.48"></stop> <stop offset="1" stop-color="#00FFFF" stop-opacity="0"></stop> </linearGradient> <linearGradient id="paint38_linear" x1="280.5" y1="23.0249" x2="267.591" y2="10.4443" gradientUnits="userSpaceOnUse"> <stop stop-color="#00FFFF"></stop> <stop offset="0.317708" stop-color="#00FFFF" stop-opacity="0.48"></stop> <stop offset="1" stop-color="#00FFFF" stop-opacity="0"></stop> </linearGradient> <linearGradient id="paint39_linear" x1="286.396" y1="32.2403" x2="311.536" y2="32.2403" gradientUnits="userSpaceOnUse"> <stop stop-color="#2D385C"></stop> <stop offset="1" stop-color="#29ABE2"></stop> </linearGradient> <linearGradient id="paint40_linear" x1="286.396" y1="28.2466" x2="311.536" y2="28.2466" gradientUnits="userSpaceOnUse"> <stop stop-color="#687191"></stop> <stop offset="1" stop-color="#61D0FF"></stop> </linearGradient> <linearGradient id="paint41_linear" x1="286.395" y1="23.2396" x2="311.488" y2="23.2396" gradientUnits="userSpaceOnUse"> <stop stop-color="#2D385C"></stop> <stop offset="1" stop-color="#29ABE2"></stop> </linearGradient> <linearGradient id="paint42_linear" x1="278.901" y1="30.8657" x2="264.5" y2="50.0249" gradientUnits="userSpaceOnUse"> <stop stop-color="#00FFFF"></stop> <stop offset="0.395833" stop-color="#00FFFF" stop-opacity="0.56"></stop> <stop offset="1" stop-color="#00FFFF" stop-opacity="0"></stop> </linearGradient> <linearGradient id="paint43_linear" x1="295.711" y1="30.8657" x2="313" y2="50.0249" gradientUnits="userSpaceOnUse"> <stop stop-color="#00FFFF"></stop> <stop offset="0.395833" stop-color="#00FFFF" stop-opacity="0.56"></stop> <stop offset="1" stop-color="#00FFFF" stop-opacity="0"></stop> </linearGradient> <linearGradient id="paint44_linear" x1="126.89" y1="122.108" x2="116.76" y2="122.108" gradientUnits="userSpaceOnUse"> <stop stop-color="#00FFFF"></stop> <stop offset="1" stop-color="#0071BC"></stop> </linearGradient> <linearGradient id="paint45_linear" x1="110.73" y1="123.467" x2="134.87" y2="123.467" gradientUnits="userSpaceOnUse"> <stop stop-color="#00FFFF"></stop> <stop offset="1" stop-color="white"></stop> </linearGradient> <linearGradient id="paint46_linear" x1="-8663.71" y1="459.611" x2="-8966.16" y2="459.611" gradientUnits="userSpaceOnUse"> <stop stop-color="#00FFFF"></stop> <stop offset="1" stop-color="#0071BC"></stop> </linearGradient> <linearGradient id="paint47_linear" x1="169.89" y1="95.1077" x2="159.76" y2="95.1077" gradientUnits="userSpaceOnUse"> <stop stop-color="#00FFFF"></stop> <stop offset="1" stop-color="#0071BC"></stop> </linearGradient> <linearGradient id="paint48_linear" x1="153.73" y1="96.4674" x2="177.87" y2="96.4674" gradientUnits="userSpaceOnUse"> <stop stop-color="#00FFFF"></stop> <stop offset="1" stop-color="white"></stop> </linearGradient> <linearGradient id="paint49_linear" x1="-8620.71" y1="432.611" x2="-8923.16" y2="432.611" gradientUnits="userSpaceOnUse"> <stop stop-color="#00FFFF"></stop> <stop offset="1" stop-color="#0071BC"></stop> </linearGradient> <linearGradient id="paint50_linear" x1="212.89" y1="122.108" x2="202.76" y2="122.108" gradientUnits="userSpaceOnUse"> <stop stop-color="#00FFFF"></stop> <stop offset="1" stop-color="#0071BC"></stop> </linearGradient> <linearGradient id="paint51_linear" x1="196.73" y1="123.467" x2="220.87" y2="123.467" gradientUnits="userSpaceOnUse"> <stop stop-color="#00FFFF"></stop> <stop offset="1" stop-color="white"></stop> </linearGradient> <linearGradient id="paint52_linear" x1="-8577.71" y1="459.611" x2="-8880.16" y2="459.611" gradientUnits="userSpaceOnUse"> <stop stop-color="#00FFFF"></stop> <stop offset="1" stop-color="#0071BC"></stop> </linearGradient> <linearGradient id="paint53_linear" x1="126.89" y1="110.108" x2="116.76" y2="110.108" gradientUnits="userSpaceOnUse"> <stop stop-color="#00FFFF"></stop> <stop offset="1" stop-color="#0071BC"></stop> </linearGradient> <linearGradient id="paint54_linear" x1="110.73" y1="111.467" x2="134.87" y2="111.467" gradientUnits="userSpaceOnUse"> <stop stop-color="#00FFFF"></stop> <stop offset="1" stop-color="white"></stop> </linearGradient> <linearGradient id="paint55_linear" x1="-8663.71" y1="447.611" x2="-8966.16" y2="447.611" gradientUnits="userSpaceOnUse"> <stop stop-color="#00FFFF"></stop> <stop offset="1" stop-color="#0071BC"></stop> </linearGradient> <linearGradient id="paint56_linear" x1="169.89" y1="83.1077" x2="159.76" y2="83.1077" gradientUnits="userSpaceOnUse"> <stop stop-color="#00FFFF"></stop> <stop offset="1" stop-color="#0071BC"></stop> </linearGradient> <linearGradient id="paint57_linear" x1="153.73" y1="84.4674" x2="177.87" y2="84.4674" gradientUnits="userSpaceOnUse"> <stop stop-color="#00FFFF"></stop> <stop offset="1" stop-color="white"></stop> </linearGradient> <linearGradient id="paint58_linear" x1="-8620.71" y1="420.611" x2="-8923.16" y2="420.611" gradientUnits="userSpaceOnUse"> <stop stop-color="#00FFFF"></stop> <stop offset="1" stop-color="#0071BC"></stop> </linearGradient> <linearGradient id="paint59_linear" x1="212.89" y1="110.108" x2="202.76" y2="110.108" gradientUnits="userSpaceOnUse"> <stop stop-color="#00FFFF"></stop> <stop offset="1" stop-color="#0071BC"></stop> </linearGradient> <linearGradient id="paint60_linear" x1="196.73" y1="111.467" x2="220.87" y2="111.467" gradientUnits="userSpaceOnUse"> <stop stop-color="#00FFFF"></stop> <stop offset="1" stop-color="white"></stop> </linearGradient> <linearGradient id="paint61_linear" x1="-8577.71" y1="447.611" x2="-8880.16" y2="447.611" gradientUnits="userSpaceOnUse"> <stop stop-color="#00FFFF"></stop> <stop offset="1" stop-color="#0071BC"></stop> </linearGradient> <linearGradient id="paint62_linear" x1="126.89" y1="98.1077" x2="116.76" y2="98.1077" gradientUnits="userSpaceOnUse"> <stop stop-color="#00FFFF"></stop> <stop offset="1" stop-color="#0071BC"></stop> </linearGradient> <linearGradient id="paint63_linear" x1="110.73" y1="99.4674" x2="134.87" y2="99.4674" gradientUnits="userSpaceOnUse"> <stop stop-color="#00FFFF"></stop> <stop offset="1" stop-color="white"></stop> </linearGradient> <linearGradient id="paint64_linear" x1="-8663.71" y1="435.611" x2="-8966.16" y2="435.611" gradientUnits="userSpaceOnUse"> <stop stop-color="#00FFFF"></stop> <stop offset="1" stop-color="#0071BC"></stop> </linearGradient> <linearGradient id="paint65_linear" x1="169.89" y1="71.1077" x2="159.76" y2="71.1077" gradientUnits="userSpaceOnUse"> <stop stop-color="#00FFFF"></stop> <stop offset="1" stop-color="#0071BC"></stop> </linearGradient> <linearGradient id="paint66_linear" x1="153.73" y1="72.4674" x2="177.87" y2="72.4674" gradientUnits="userSpaceOnUse"> <stop stop-color="#00FFFF"></stop> <stop offset="1" stop-color="white"></stop> </linearGradient> <linearGradient id="paint67_linear" x1="-8620.71" y1="408.611" x2="-8923.16" y2="408.611" gradientUnits="userSpaceOnUse"> <stop stop-color="#00FFFF"></stop> <stop offset="1" stop-color="#0071BC"></stop> </linearGradient> <linearGradient id="paint68_linear" x1="169.89" y1="59.1077" x2="159.76" y2="59.1077" gradientUnits="userSpaceOnUse"> <stop stop-color="#00FFFF"></stop> <stop offset="1" stop-color="#0071BC"></stop> </linearGradient> <linearGradient id="paint69_linear" x1="153.73" y1="60.4674" x2="177.87" y2="60.4674" gradientUnits="userSpaceOnUse"> <stop stop-color="#00FFFF"></stop> <stop offset="1" stop-color="white"></stop> </linearGradient> <linearGradient id="paint70_linear" x1="-8620.71" y1="396.611" x2="-8923.16" y2="396.611" gradientUnits="userSpaceOnUse"> <stop stop-color="#00FFFF"></stop> <stop offset="1" stop-color="#0071BC"></stop> </linearGradient> <linearGradient id="paint71_linear" x1="355" y1="200.025" x2="374.074" y2="186.905" gradientUnits="userSpaceOnUse"> <stop stop-color="#00FFFF"></stop> <stop offset="0.317708" stop-color="#00FFFF" stop-opacity="0.48"></stop> <stop offset="1" stop-color="#00FFFF" stop-opacity="0"></stop> </linearGradient> <linearGradient id="paint72_linear" x1="341.5" y1="196.025" x2="323.71" y2="187.103" gradientUnits="userSpaceOnUse"> <stop stop-color="#00FFFF"></stop> <stop offset="0.317708" stop-color="#00FFFF" stop-opacity="0.48"></stop> <stop offset="1" stop-color="#00FFFF" stop-opacity="0"></stop> </linearGradient> <linearGradient id="paint73_linear" x1="347.396" y1="205.24" x2="372.536" y2="205.24" gradientUnits="userSpaceOnUse"> <stop stop-color="#2D385C"></stop> <stop offset="1" stop-color="#29ABE2"></stop> </linearGradient> <linearGradient id="paint74_linear" x1="347.396" y1="201.247" x2="372.536" y2="201.247" gradientUnits="userSpaceOnUse"> <stop stop-color="#687191"></stop> <stop offset="1" stop-color="#61D0FF"></stop> </linearGradient> <linearGradient id="paint75_linear" x1="347.395" y1="196.24" x2="372.488" y2="196.24" gradientUnits="userSpaceOnUse"> <stop stop-color="#2D385C"></stop> <stop offset="1" stop-color="#29ABE2"></stop> </linearGradient> <linearGradient id="paint76_linear" x1="339.901" y1="203.866" x2="325.5" y2="223.025" gradientUnits="userSpaceOnUse"> <stop stop-color="#00FFFF"></stop> <stop offset="0.395833" stop-color="#00FFFF" stop-opacity="0.56"></stop> <stop offset="1" stop-color="#00FFFF" stop-opacity="0"></stop> </linearGradient> <linearGradient id="paint77_linear" x1="356.711" y1="203.866" x2="374" y2="223.025" gradientUnits="userSpaceOnUse"> <stop stop-color="#00FFFF"></stop> <stop offset="0.395833" stop-color="#00FFFF" stop-opacity="0.56"></stop> <stop offset="1" stop-color="#00FFFF" stop-opacity="0"></stop> </linearGradient> <linearGradient id="paint78_linear" x1="350.067" y1="195.599" x2="356.393" y2="195.599" gradientUnits="userSpaceOnUse"> <stop stop-color="#687191"></stop> <stop offset="1" stop-color="#61D0FF"></stop> </linearGradient> <linearGradient id="paint79_linear" x1="346.133" y1="183.29" x2="359.722" y2="183.29" gradientUnits="userSpaceOnUse"> <stop stop-color="#687191"></stop> <stop offset="1" stop-color="#61D0FF"></stop> </linearGradient> <linearGradient id="paint80_linear" x1="352.417" y1="197.379" x2="356.1" y2="197.379" gradientUnits="userSpaceOnUse"> <stop stop-color="#687191"></stop> <stop offset="1" stop-color="#61D0FF"></stop> </linearGradient> <linearGradient id="paint81_linear" x1="346.993" y1="191.178" x2="359.614" y2="191.178" gradientUnits="userSpaceOnUse"> <stop stop-color="#687191"></stop> <stop offset="1" stop-color="#61D0FF"></stop> </linearGradient> <linearGradient id="paint82_linear" x1="44" y1="90.0249" x2="63.0737" y2="76.9051" gradientUnits="userSpaceOnUse"> <stop stop-color="#00FFFF"></stop> <stop offset="0.317708" stop-color="#00FFFF" stop-opacity="0.48"></stop> <stop offset="1" stop-color="#00FFFF" stop-opacity="0"></stop> </linearGradient> <linearGradient id="paint83_linear" x1="30.5" y1="86.0249" x2="12.7101" y2="77.1029" gradientUnits="userSpaceOnUse"> <stop stop-color="#00FFFF"></stop> <stop offset="0.317708" stop-color="#00FFFF" stop-opacity="0.48"></stop> <stop offset="1" stop-color="#00FFFF" stop-opacity="0"></stop> </linearGradient> <linearGradient id="paint84_linear" x1="36.3959" y1="95.2403" x2="61.5358" y2="95.2403" gradientUnits="userSpaceOnUse"> <stop stop-color="#2D385C"></stop> <stop offset="1" stop-color="#29ABE2"></stop> </linearGradient> <linearGradient id="paint85_linear" x1="36.3959" y1="91.2466" x2="61.5358" y2="91.2466" gradientUnits="userSpaceOnUse"> <stop stop-color="#687191"></stop> <stop offset="1" stop-color="#61D0FF"></stop> </linearGradient> <linearGradient id="paint86_linear" x1="36.395" y1="86.2396" x2="61.488" y2="86.2396" gradientUnits="userSpaceOnUse"> <stop stop-color="#2D385C"></stop> <stop offset="1" stop-color="#29ABE2"></stop> </linearGradient> <linearGradient id="paint87_linear" x1="28.9014" y1="93.8657" x2="14.5" y2="113.025" gradientUnits="userSpaceOnUse"> <stop stop-color="#00FFFF"></stop> <stop offset="0.395833" stop-color="#00FFFF" stop-opacity="0.56"></stop> <stop offset="1" stop-color="#00FFFF" stop-opacity="0"></stop> </linearGradient> <linearGradient id="paint88_linear" x1="45.7109" y1="93.8657" x2="63" y2="113.025" gradientUnits="userSpaceOnUse"> <stop stop-color="#00FFFF"></stop> <stop offset="0.395833" stop-color="#00FFFF" stop-opacity="0.56"></stop> <stop offset="1" stop-color="#00FFFF" stop-opacity="0"></stop> </linearGradient> <linearGradient id="paint89_linear" x1="39.0672" y1="85.5988" x2="45.3935" y2="85.5988" gradientUnits="userSpaceOnUse"> <stop stop-color="#687191"></stop> <stop offset="1" stop-color="#61D0FF"></stop> </linearGradient> <linearGradient id="paint90_linear" x1="35.1333" y1="73.29" x2="48.7219" y2="73.29" gradientUnits="userSpaceOnUse"> <stop stop-color="#687191"></stop> <stop offset="1" stop-color="#61D0FF"></stop> </linearGradient> <linearGradient id="paint91_linear" x1="41.4166" y1="87.3792" x2="45.0997" y2="87.3792" gradientUnits="userSpaceOnUse"> <stop stop-color="#687191"></stop> <stop offset="1" stop-color="#61D0FF"></stop> </linearGradient> <linearGradient id="paint92_linear" x1="35.9925" y1="81.1775" x2="48.6144" y2="81.1775" gradientUnits="userSpaceOnUse"> <stop stop-color="#687191"></stop> <stop offset="1" stop-color="#61D0FF"></stop> </linearGradient> </defs> </svg> 