<svg width="872" height="1067" viewBox="0 0 872 1067" fill="none" xmlns="http://www.w3.org/2000/svg">
<path d="M715.874 262.317C715.514 322.072 706.875 426.822 706.875 426.822C706.875 426.822 696.076 467.498 670.878 497.016C669.078 499.175 666.918 501.695 664.759 503.855C635.241 533.372 613.283 525.453 575.127 482.257C525.091 426.102 427.9 405.224 427.9 405.224L430.78 323.871L455.978 238.919C455.978 238.919 455.978 238.919 459.937 224.881C461.377 219.841 475.776 216.601 494.494 214.801C495.934 214.801 497.374 214.442 499.174 214.442C499.894 214.442 500.974 214.442 501.694 214.082C534.811 210.842 553.889 210.122 553.889 210.122L552.089 281.755L640.641 211.562C666.198 201.483 707.235 215.881 718.754 223.801C721.633 224.881 715.874 239.999 715.874 262.317Z" fill="#8F85D6"/>
<path d="M717.049 262.316C716.689 322.07 708.05 426.821 708.05 426.821C708.05 426.821 706.97 430.78 704.81 437.26C699.411 435.82 693.291 433.3 686.092 429.701C682.132 427.901 678.173 425.021 673.493 422.141C664.134 416.022 653.335 407.743 642.176 398.743C603.66 367.426 559.024 326.03 546.785 321.35C529.506 314.511 485.23 297.233 485.23 297.233C485.23 297.233 485.231 297.233 484.871 297.233C484.151 297.233 480.551 297.593 476.591 297.953C473.712 300.472 470.112 301.912 466.152 302.272C444.554 302.632 434.835 328.19 434.835 328.19C434.835 328.19 434.475 328.19 434.115 328.19C433.035 342.589 431.595 367.786 430.516 385.425C429.796 396.944 429.436 405.223 429.436 405.223C429.436 405.223 429.436 401.623 429.796 398.023L432.675 323.87L433.035 323.15L440.235 298.313L441.675 293.273L447.074 275.275L448.874 269.155L449.954 265.556L453.553 253.677L454.273 251.157L457.873 238.558C457.873 238.558 457.873 238.558 461.833 224.519C462.193 223.799 462.553 223.08 463.273 222.36L463.632 222C465.072 220.92 466.872 220.2 469.032 219.12C470.112 218.76 471.552 218.4 472.992 218.04C477.671 216.96 483.431 215.88 489.91 214.8C492.07 214.44 494.23 214.08 496.389 214.08C497.829 214.08 499.269 213.72 501.069 213.72C501.789 213.72 502.869 213.72 503.589 213.36C505.389 213.36 507.188 213 508.988 213C538.146 210.481 555.064 209.401 555.784 209.401L555.424 227.399L553.984 275.635V281.034L557.944 277.795L641.096 211.561L641.816 211.201L642.176 210.841C655.135 205.801 671.693 206.881 686.812 210.121C701.571 213.36 714.889 219.12 720.649 223.08C721.009 223.08 721.009 223.44 721.369 223.799C721.729 227.039 717.049 241.798 717.049 262.316Z" fill="#8F85D6"/>
<path d="M430.158 385.065C429.438 396.584 429.078 404.864 429.078 404.864C429.078 404.864 429.078 401.264 429.438 397.664C429.438 395.505 429.798 392.985 429.798 391.185L430.158 385.065Z" fill="#8896C5"/>
<path d="M555.065 209.042V197.523C555.065 197.523 509.709 171.245 507.189 152.887C504.669 134.169 498.91 73.6942 498.91 73.6942L535.266 45.6168L628.138 74.4142L638.217 103.931L616.979 164.766L641.816 213.361L555.424 289.674L536.346 274.196L555.065 209.042Z" fill="#C7BEFA"/>
<path d="M508.267 213.002C508.267 213.002 482.71 201.483 481.99 137.049C481.27 72.2545 497.468 27.6186 530.585 12.86C563.702 -1.89866 604.019 14.2998 615.178 27.6186C625.977 40.9374 642.535 68.6549 647.935 96.0123C652.974 123.37 654.774 188.884 686.811 210.482L642.175 213.002C642.175 213.002 610.858 186.724 617.337 164.406C623.817 142.088 618.777 120.49 618.777 120.49C618.777 120.49 642.535 104.652 629.216 88.453C618.777 75.8542 606.898 99.972 606.898 99.972C606.898 99.972 562.622 61.4555 535.265 66.855C523.386 69.0148 516.187 77.654 511.507 86.6532C505.748 97.8122 503.948 110.771 505.388 123.01L505.748 126.25C508.987 151.447 522.306 174.485 542.824 189.604C546.424 192.483 550.384 195.003 555.063 198.243V209.762L508.267 213.002Z" fill="black"/>
<path d="M487.028 281.036C487.028 281.036 487.028 281.396 487.028 281.036C484.868 287.875 481.268 293.995 476.949 297.594C476.949 297.594 476.948 297.594 476.589 297.954C473.709 300.474 470.109 301.914 466.149 302.274C444.551 302.634 434.832 328.192 434.832 328.192C434.832 328.192 434.472 328.192 434.112 328.192C433.752 328.192 433.033 327.832 431.953 327.832L432.313 323.152L433.392 299.754V295.075L435.192 250.799L435.552 242.159C435.552 242.159 435.552 242.159 439.512 228.121C440.232 225.601 449.231 222.721 460.03 220.201C460.75 220.201 461.47 219.841 462.19 219.841C463.99 219.482 466.15 219.122 468.309 218.762C469.389 218.762 470.469 218.402 471.549 218.042C478.028 216.962 484.508 215.882 489.907 215.522C489.547 215.522 489.547 215.522 489.187 215.882C486.308 216.962 481.988 219.122 480.908 222.721C480.548 223.441 480.548 224.161 480.548 224.881C479.468 231 480.908 236.4 483.788 243.239C484.868 246.119 486.668 249.359 488.107 252.598C490.987 258.358 490.627 270.237 487.028 281.036Z" fill="black" fill-opacity="0.16"/>
<path d="M390.919 184.925L424.396 298.675C424.756 300.115 426.556 301.194 427.995 300.834L479.471 288.236C481.271 287.876 482.35 286.076 481.63 284.276L448.874 177.726C447.434 173.406 443.474 170.886 439.154 171.966L393.079 180.966C391.279 181.325 390.199 183.125 390.919 184.925Z" fill="#4630EB"/>
<path d="M450.671 300.113C443.472 304.433 435.193 310.192 434.833 317.392C434.833 318.831 434.473 322.431 434.113 327.831C433.033 342.229 431.593 367.427 430.513 385.065C429.793 396.584 429.433 404.863 429.433 404.863C429.433 404.863 425.474 396.224 418.634 385.425C408.555 369.947 401.356 341.869 403.516 323.511L404.956 309.832C405.316 306.952 404.956 304.073 404.596 301.553C402.796 291.474 399.196 265.196 406.035 259.077C407.475 257.637 409.635 256.557 411.795 255.477H412.155C417.914 252.957 425.474 251.518 431.233 250.438C432.673 250.078 434.473 250.438 435.913 251.158C438.073 252.237 440.232 254.037 440.952 256.557C442.752 262.317 444.912 269.156 447.432 275.275C449.591 281.035 451.391 286.434 452.471 290.754C452.831 292.554 453.191 293.994 453.191 295.434C452.111 297.233 451.751 299.393 450.671 300.113Z" fill="#C7BEFA"/>
<path d="M717.048 262.317C716.688 322.072 708.049 426.822 708.049 426.822C708.049 426.822 706.969 430.782 704.809 437.261C699.409 435.821 693.29 433.301 686.091 429.702C682.131 427.902 678.171 425.022 673.492 422.142C664.133 416.023 653.334 407.744 642.175 398.745C640.735 379.306 642.535 358.428 649.374 355.189C653.334 353.389 656.933 348.709 659.453 342.23C664.853 329.631 668.092 311.273 670.252 295.074C670.252 293.994 670.612 292.914 670.612 291.834C671.332 286.075 671.692 280.675 672.052 275.996C672.052 274.916 672.052 273.836 672.412 272.756C672.772 267.357 672.772 264.117 672.772 264.117C672.772 264.117 673.492 264.117 674.572 264.117C679.611 263.757 696.89 262.677 717.048 262.317Z" fill="black" fill-opacity="0.16"/>
<path d="M746.205 414.223C732.166 431.141 725.687 443.38 704.449 437.261C699.049 435.821 692.93 433.301 685.73 429.701C681.771 427.902 677.811 425.022 673.132 422.142C663.772 416.023 652.973 407.743 641.814 398.744C603.298 367.427 558.662 326.031 546.423 321.351C529.145 314.512 484.869 297.234 484.869 297.234C484.869 297.234 484.869 297.234 484.509 297.234C483.789 297.234 480.549 297.594 476.23 297.594C470.47 297.954 463.631 297.954 460.031 297.234C458.951 296.874 457.871 296.514 457.871 296.154C457.871 295.794 457.511 294.714 456.791 293.274C456.431 292.194 455.711 290.754 454.992 288.954C452.472 282.475 449.232 272.756 448.512 265.197C447.792 260.157 448.512 255.837 451.032 254.038C451.392 253.678 451.752 253.678 452.112 253.318C459.311 248.638 465.431 248.278 470.47 248.998H470.83C471.19 248.998 471.55 248.998 472.27 249.358C473.71 249.718 475.51 250.078 477.31 250.438C480.909 251.518 485.229 252.598 487.389 251.878C488.468 251.518 489.188 250.798 488.828 249.358C488.468 247.918 486.309 245.758 483.069 242.519C479.829 239.279 475.87 235.679 471.91 232.08C468.67 229.2 465.791 226.32 462.911 223.44C462.551 223.08 462.551 223.08 462.191 222.72C461.471 221.641 460.391 220.921 459.671 219.841C456.071 215.521 453.552 211.921 454.272 210.122C454.632 209.042 456.431 209.402 458.951 210.482C461.111 211.562 463.631 213.001 466.511 214.801C467.95 215.521 469.39 216.601 470.83 217.681C471.19 218.041 471.55 218.041 471.91 218.401C474.43 220.201 477.309 222.361 479.829 224.16C494.588 235.319 510.067 248.278 510.067 248.278L538.504 266.276L552.903 275.276L556.862 277.795L563.702 282.115L659.093 342.23L673.132 351.229L670.612 310.192L670.252 305.153C670.252 304.793 670.252 304.793 670.252 304.433L669.532 295.434L669.172 291.474C669.172 290.394 669.172 288.954 669.172 287.874C669.532 284.995 669.892 279.595 671.332 273.116C672.052 270.236 672.772 267.356 673.492 264.117C674.211 261.597 675.291 258.717 676.011 255.837C676.371 255.477 676.371 254.758 676.731 254.398C682.131 241.079 690.77 227.76 705.169 223.44C705.529 223.44 705.889 223.08 706.249 223.08C708.048 222.361 710.208 222.001 712.368 222.001C714.168 222.001 715.608 222.001 717.048 222.361C717.767 222.72 718.487 222.72 719.207 223.08C754.124 239.639 762.403 394.425 746.205 414.223Z" fill="#8F85D6"/>
<path d="M698.642 387.022C691.083 414.38 683.883 420.859 674.524 421.579C665.165 415.459 654.366 407.18 643.207 398.181C604.69 366.864 560.055 325.468 547.816 320.788C530.537 313.949 486.261 296.67 486.261 296.67C486.261 296.67 486.261 296.67 485.901 296.67C485.181 296.67 481.582 297.03 477.622 297.39C472.223 297.75 465.383 297.75 461.784 296.67C460.704 296.31 459.984 295.95 459.624 295.59C459.264 295.231 458.904 294.511 458.184 293.071C457.464 291.991 457.104 290.551 456.024 288.751C453.504 283.352 450.625 275.072 449.185 268.233C447.745 261.034 447.385 254.914 450.625 252.754C451.705 252.035 453.144 251.315 454.224 250.595C460.704 247.355 467.183 247.715 471.863 248.435H472.223C472.583 248.435 472.943 248.435 473.663 248.795C475.102 249.155 476.902 249.515 478.702 249.875C482.302 250.955 486.621 252.034 488.781 251.315C489.861 250.955 490.581 250.235 490.221 248.795C489.861 247.355 487.701 245.195 484.462 241.955C481.222 238.716 477.262 235.116 473.303 231.516C470.063 228.637 467.183 225.757 464.303 222.877C463.943 222.517 463.943 222.517 463.583 222.157C462.864 221.077 461.784 220.357 461.064 219.278C457.464 214.958 454.944 211.358 455.664 209.558C456.024 208.479 457.824 208.838 460.344 209.918C462.504 210.998 465.023 212.438 467.903 214.238C469.343 214.958 470.783 216.038 472.223 217.118C472.583 217.478 472.943 217.478 473.303 217.838C475.822 219.637 478.702 221.797 481.222 223.597C495.98 234.756 511.459 247.715 511.459 247.715L539.896 265.713L554.295 274.712L558.255 277.232L565.094 281.552L660.485 341.666L674.524 350.665C674.524 350.305 707.281 355.345 698.642 387.022Z" fill="#C7BEFA"/>
<path d="M555.066 197.523C555.066 197.523 563.705 200.762 570.905 196.803C577.384 193.203 589.983 178.804 589.983 178.804C589.983 178.804 561.906 220.201 547.507 234.239L554.706 209.042L555.066 197.523Z" fill="black" fill-opacity="0.24"/>
<circle cx="797.512" cy="132.467" r="73.7791" fill="#6FCF97"/>
<g clip-path="url(#clip0)">
<rect width="78.6977" height="78.6977" transform="translate(769.687 84.274) rotate(15)" fill="#6FCF97"/>
<path fill-rule="evenodd" clip-rule="evenodd" d="M825.636 125.909C826.711 118.144 820.758 114.042 812.657 111.351L815.159 100.818L808.75 99.2987L806.312 109.553C804.628 109.15 802.9 108.778 801.176 108.405L803.632 98.0834L797.223 96.5606L794.722 107.09C793.328 106.787 791.956 106.492 790.628 106.174L790.635 106.14L781.793 104.038L780.168 110.884C780.168 110.884 784.925 111.919 784.826 111.986C787.422 112.605 787.908 114.312 787.845 115.674L784.997 127.671C785.176 127.714 785.406 127.778 785.666 127.875L784.987 127.716L780.994 144.524C780.685 145.311 779.896 146.5 778.079 146.073C778.146 146.164 773.42 144.967 773.42 144.967L770.329 152.318L778.673 154.3C780.224 154.671 781.744 155.061 783.239 155.425L780.713 166.077L787.118 167.596L789.619 157.063C791.37 157.513 793.069 157.931 794.731 158.326L792.236 168.815L798.645 170.334L801.171 159.705C812.097 161.647 820.283 160.723 823.624 150.825C826.317 142.857 823.348 138.307 817.578 135.387C821.747 134.378 824.86 131.595 825.636 125.909ZM811.256 146.554C809.373 154.516 795.955 150.371 791.609 149.343L794.965 135.232C799.312 136.267 813.231 138.254 811.256 146.554ZM813.005 125.935C811.284 133.178 800.118 129.63 796.502 128.771L799.541 115.976C803.157 116.835 814.799 118.38 813.005 125.935Z" fill="white"/>
</g>
<path d="M735.975 48.8662H713.139V26.0298C713.139 25.0204 712.738 24.0523 712.024 23.3385C711.31 22.6248 710.342 22.2238 709.333 22.2238C708.323 22.2238 707.355 22.6248 706.641 23.3385C705.928 24.0523 705.527 25.0204 705.527 26.0298V48.8662H682.69C681.681 48.8662 680.713 49.2672 679.999 49.981C679.285 50.6947 678.884 51.6628 678.884 52.6723C678.884 53.6817 679.285 54.6498 679.999 55.3636C680.713 56.0773 681.681 56.4783 682.69 56.4783H705.527V79.3147C705.527 80.3241 705.928 81.2922 706.641 82.006C707.355 82.7198 708.323 83.1208 709.333 83.1208C710.342 83.1208 711.31 82.7198 712.024 82.006C712.738 81.2922 713.139 80.3241 713.139 79.3147V56.4783H735.975C736.985 56.4783 737.953 56.0773 738.667 55.3636C739.38 54.6498 739.781 53.6817 739.781 52.6723C739.781 51.6628 739.38 50.6947 738.667 49.981C737.953 49.2672 736.985 48.8662 735.975 48.8662Z" fill="#8684A5"/>
<path d="M458.821 445.345C458.821 445.345 464.234 403.636 460.095 396.313C455.956 388.99 437.171 396.631 430.166 397.268C423.162 398.223 422.843 403.954 423.162 411.277C423.799 418.919 423.48 422.102 423.48 422.102L420.933 439.614L458.821 445.345Z" fill="black"/>
<path d="M277.02 541.498C305.356 580.978 347.383 618.547 379.858 630.009C392.276 634.467 403.419 635.103 411.697 630.646C464.868 601.673 463.912 442.798 463.912 442.798L419.02 438.022L389.092 554.552C389.092 554.552 309.177 438.977 270.97 444.39C255.688 446.619 245.181 470.816 249.002 485.78C253.141 502.655 263.648 522.395 277.02 541.498Z" fill="black"/>
<path d="M453.406 362.565L428.253 368.933C427.617 369.251 426.98 369.888 426.98 370.525L419.657 423.058C419.339 424.332 420.612 425.605 421.886 425.287L447.675 418.601C448.312 418.282 448.948 417.646 448.948 417.009L455.316 364.794C455.953 363.202 454.679 362.246 453.406 362.565Z" fill="black"/>
<path d="M453.087 365.111L429.209 371.16L422.522 422.421L447.038 416.053L453.087 365.111Z" fill="black"/>
<path d="M448.948 390.901L435.894 394.403L435.576 398.224L446.401 395.677L447.993 396.314L448.948 390.901Z" fill="black"/>
<path d="M426.34 402.362L438.12 399.496V403.317L427.295 405.546L425.703 406.819L426.34 402.362Z" fill="black"/>
<path d="M447.993 402.363L435.257 405.546L434.621 409.686L445.446 406.82L447.356 407.775L447.993 402.363Z" fill="black"/>
<path d="M425.388 413.506L437.487 410.958L437.169 414.461L426.343 416.689L424.751 417.963L425.388 413.506Z" fill="black"/>
<path d="M427.299 410.958C425.707 408.73 422.205 408.73 420.294 410.64C419.339 411.595 418.384 412.55 417.429 414.142C414.245 418.6 416.474 422.739 417.111 426.559C417.747 429.425 420.613 432.927 422.523 433.245C425.389 433.882 426.344 425.286 426.344 425.286C426.344 425.286 421.25 421.147 425.389 416.689C427.936 413.824 428.254 412.232 427.299 410.958Z" fill="black"/>
<path d="M449.586 421.466C449.586 421.466 444.81 422.421 444.492 420.511C444.173 418.6 447.039 392.493 449.904 392.174C452.77 391.538 455.317 392.493 456.272 396.632C457.227 400.452 458.819 415.098 449.586 421.466Z" fill="black"/>
<path d="M363.62 618.227C352.477 609.631 338.149 569.196 328.598 542.451C320.638 520.164 287.208 459.989 287.208 459.989C287.208 459.989 274.154 498.514 268.104 536.402C296.441 575.882 338.468 613.452 370.943 624.913C369.033 623.003 366.486 620.774 363.62 618.227Z" fill="black"/>
<path d="M178.641 311.304C178.641 311.304 229.264 322.766 240.408 314.17C251.233 305.573 257.282 249.537 236.587 252.084C215.574 254.631 167.179 250.174 157.309 267.367C147.757 284.878 151.578 337.73 151.578 337.73C151.578 337.73 156.354 351.102 163.995 339.64C171.318 327.86 178.641 311.304 178.641 311.304Z" fill="black"/>
<path d="M144.251 900.637C186.914 918.467 211.728 841.32 286.25 834.647C392.91 825.095 355.659 713.744 352.157 710.242C348.654 706.421 349.61 708.968 333.372 647.202C322.228 604.538 320.955 574.61 324.457 549.457C327.323 528.125 311.722 464.766 291.663 448.847C280.838 440.251 242.632 438.977 227.031 436.748C208.883 433.883 190.098 433.564 171.632 435.793C170.677 435.793 169.721 436.112 168.448 436.112C137.883 439.932 37.5912 499.789 35.9992 505.838C33.1338 516.345 63.0621 594.349 71.3401 613.453C72.2953 615.363 72.932 617.273 73.5688 619.502C80.2549 640.834 83.4388 679.677 87.2594 691.457C88.5329 695.915 94.2639 714.063 101.587 736.986C115.596 782.197 134.699 845.875 137.564 863.386C137.564 864.341 137.883 865.296 137.883 865.933C142.34 889.493 144.251 900.637 144.251 900.637Z" fill="black"/>
<path d="M132.154 450.439L146.8 371.161C146.8 371.161 128.652 359.062 134.064 341.232C139.477 323.403 151.257 337.73 151.257 337.73C151.257 337.73 163.356 299.205 185.006 294.748C205.701 290.609 222.575 291.564 223.849 302.071C225.123 311.304 237.221 362.564 222.257 395.358C219.073 402.681 212.706 408.093 205.064 410.004C198.378 411.914 190.418 412.869 186.916 409.367L191.055 440.25C192.329 450.757 186.598 460.946 176.728 464.448C164.311 468.905 146.8 469.86 132.154 450.439Z" fill="black"/>
<path d="M161.126 263.546C161.126 263.546 134.382 271.824 127.377 286.788C120.373 301.752 126.422 385.488 131.516 388.672C136.611 391.537 146.799 391.219 146.799 391.219C146.799 391.219 149.983 374.026 146.799 371.16C143.615 368.613 129.925 359.38 134.064 341.232C138.203 323.084 151.256 337.73 151.256 337.73L161.126 263.546Z" fill="black"/>
<path d="M101.271 737.304C102.226 736.986 101.908 734.757 99.9973 729.344C90.1274 703.555 93.948 599.761 93.948 599.761C93.948 599.761 80.5758 603.9 74.2081 617.909C73.8897 618.546 73.5713 619.183 73.5713 619.819C80.2574 641.151 83.4413 679.994 87.2619 691.775C88.5354 695.914 94.2664 714.062 101.271 737.304Z" fill="black"/>
<path d="M36.3195 503.927C36.3195 503.927 -16.2142 614.088 5.75442 730.618C27.4047 847.147 88.8532 896.815 112.732 921.968L138.521 892.676C138.521 892.676 88.2164 824.86 71.9787 741.443C71.9787 741.443 71.342 695.595 81.5303 679.357C91.0819 663.438 120.692 547.864 36.3195 503.927Z" fill="black"/>
<path d="M137.563 892.36C137.245 892.36 136.926 892.041 136.608 891.723C109.545 854.153 86.6214 807.669 73.886 764.368C60.8322 719.476 83.756 666.942 84.0743 666.305C103.496 604.857 89.1685 564.74 73.886 542.135C57.3299 517.619 35.6797 507.112 35.6797 507.112C35.0429 506.794 34.7245 506.157 35.0429 505.52C35.3613 504.884 35.998 504.565 36.6348 504.884C36.9532 504.884 58.9218 515.39 75.7963 540.543C91.3972 563.785 106.043 604.538 86.303 667.26C85.9847 667.897 63.3792 719.794 76.4331 763.731C89.1685 806.714 111.774 852.88 138.837 890.449C139.155 891.086 139.155 891.723 138.518 892.36C137.882 892.041 137.882 892.36 137.563 892.36Z" fill="black"/>
<path d="M138.523 892.358C138.523 892.358 138.842 892.358 138.523 892.358C138.842 892.358 164.949 893.632 168.133 899.044C171.317 904.457 160.173 908.914 153.169 906.686C164.949 919.103 179.913 935.34 179.595 940.753C178.958 949.668 159.855 954.125 148.712 954.444C137.568 954.762 112.416 921.65 112.416 921.65L138.523 892.358Z" fill="black"/>
<path d="M353.431 718.201C352.794 718.201 352.475 717.882 352.157 717.246C340.695 683.815 334.009 656.752 327.323 624.595C324.776 611.86 321.91 574.927 321.273 529.716C320.955 485.46 291.027 451.712 288.161 448.846C284.341 447.573 242.632 434.519 194.237 434.837C193.601 434.837 192.964 434.2 192.964 433.564C192.964 432.927 193.601 432.29 194.237 432.29C194.874 432.29 195.829 432.29 196.466 432.29C246.771 432.29 288.798 446.299 289.435 446.617C289.753 446.617 289.753 446.936 290.072 446.936C290.39 447.254 323.502 482.595 324.139 530.035C324.457 575.245 327.323 611.86 329.87 624.595C336.556 656.434 343.242 683.497 354.386 716.927C354.704 717.564 354.386 718.201 353.749 718.519C353.749 718.201 353.431 718.201 353.431 718.201Z" fill="black"/>
<path d="M458.819 445.345C458.819 445.345 464.231 403.636 460.092 396.314C455.953 388.991 437.168 396.632 430.164 397.269C423.159 398.224 422.841 403.955 423.159 411.278C423.796 418.919 423.478 422.103 423.478 422.103L420.931 439.614L458.819 445.345Z" fill="#C7BEFA"/>
<path d="M277.019 541.497C305.355 580.977 347.382 618.547 379.858 630.009C392.275 634.466 403.418 635.103 411.696 630.645C464.867 601.672 463.912 442.798 463.912 442.798L419.019 438.022L389.091 554.551C389.091 554.551 309.176 438.977 270.969 444.39C255.687 446.618 245.18 470.816 249.001 485.78C253.14 502.654 263.647 522.394 277.019 541.497Z" fill="black"/>
<path d="M462.003 359.296L429.846 352.376C428.89 352.695 428.254 353.331 427.935 354.286L418.702 421.148C418.384 422.739 419.976 424.331 421.568 423.695L454.998 430.296C455.953 429.978 456.59 429.341 456.908 428.386L464.868 361.843C465.186 360.251 463.595 358.978 462.003 359.296Z" fill="#4630EB"/>
<path d="M461.364 362.48L431.117 355.241L422.203 420.51L453.404 427.113L461.364 362.48Z" fill="#4630EB"/>
<path d="M427.298 410.959C425.706 408.731 422.204 408.731 420.293 410.641C419.338 411.596 418.383 412.551 417.428 414.143C414.244 418.601 416.473 422.74 417.11 426.56C417.746 429.426 420.612 432.928 422.522 433.247C425.388 433.883 426.343 425.287 426.343 425.287C426.343 425.287 421.249 421.148 425.388 416.69C427.935 413.825 428.253 412.233 427.298 410.959Z" fill="#C7BEFA"/>
<path d="M453.172 434.428C453.172 434.428 448.43 435.704 448.048 433.425C447.667 431.146 449.667 399.796 452.521 399.336C455.364 398.494 457.942 399.567 459.034 404.499C460.115 409.048 462.191 426.546 453.172 434.428Z" fill="#C7BEFA"/>
<path d="M363.621 618.229C352.477 609.632 338.15 569.197 328.598 542.453C320.639 520.166 287.208 459.991 287.208 459.991C287.208 459.991 274.154 498.516 268.105 536.404C296.441 575.884 338.468 613.453 370.944 624.915C369.033 623.005 366.486 620.776 363.621 618.229Z" fill="black" fill-opacity="0.24"/>
<path d="M178.639 311.304C178.639 311.304 229.263 322.766 240.406 314.17C251.231 305.573 257.281 249.537 236.586 252.084C215.572 254.631 167.177 250.174 157.307 267.367C147.756 284.878 151.576 337.73 151.576 337.73C151.576 337.73 156.352 351.102 163.994 339.64C171.316 327.86 178.639 311.304 178.639 311.304Z" fill="black"/>
<path d="M336.239 657.709H88.8531C82.8037 657.709 81.5302 657.709 81.5302 657.39C81.8486 643.7 77.0728 630.009 73.8889 619.502C73.2522 617.274 72.297 615.045 71.6602 613.453C63.3822 594.668 33.7723 516.345 36.3194 505.839C36.3194 505.52 36.9561 504.883 37.5929 504.247C45.871 495.969 94.9024 466.359 132.79 448.847C147.755 441.843 160.808 436.749 169.086 435.794C170.042 435.794 171.315 435.475 172.27 435.475C178.638 434.838 184.687 434.202 191.055 434.202C203.154 433.883 215.571 434.838 227.669 436.43C235.629 437.704 249.638 438.659 262.692 440.251C275.109 441.843 286.889 444.39 292.302 448.529C293.257 449.166 293.894 450.121 294.849 450.758C300.898 456.807 306.629 467.314 311.405 479.412V479.731C316.818 493.421 320.957 509.022 323.185 522.395C323.504 524.942 324.14 527.807 324.459 530.354C325.414 537.996 325.732 544.363 325.096 549.139C324.777 551.686 324.459 553.915 324.14 556.462C323.185 567.287 322.867 579.067 324.14 592.44C324.14 593.395 324.459 594.668 324.459 595.623C326.051 610.588 328.916 627.144 334.01 646.565C334.329 650.704 334.966 654.206 336.239 657.709Z" fill="black"/>
<path d="M132.155 450.439L146.801 371.161C146.801 371.161 128.653 359.063 134.065 341.233C139.478 323.403 151.258 337.731 151.258 337.731C151.258 337.731 163.357 299.206 185.007 294.749C205.702 290.61 222.576 291.565 223.85 302.071C225.124 311.305 237.222 362.565 222.258 395.359C219.074 402.681 212.706 408.094 205.065 410.004C198.379 411.915 190.419 412.87 186.917 409.368L191.056 440.251C192.33 450.758 186.599 460.946 176.729 464.448C164.312 468.906 146.801 469.861 132.155 450.439Z" fill="#C7BEFA"/>
<path d="M161.125 263.546C161.125 263.546 134.381 271.824 127.376 286.789C120.372 301.753 126.421 385.488 131.516 388.672C136.61 391.538 146.798 391.219 146.798 391.219C146.798 391.219 149.982 374.026 146.798 371.161C143.614 368.614 129.924 359.381 134.063 341.233C138.202 323.085 151.255 337.73 151.255 337.73L161.125 263.546Z" fill="black"/>
<path d="M93.9475 599.763C93.9475 599.763 93.9475 600.081 93.9475 600.718C93.9475 603.902 93.6291 614.727 93.3107 629.054V630.009C93.3107 638.287 93.3107 648.157 93.3107 657.709H88.8533C83.4407 657.709 81.5304 657.709 81.5304 657.709C79.6201 644.337 77.073 630.009 73.8892 619.821C74.2075 619.184 74.2075 618.229 74.5259 617.911C80.2569 604.538 92.9923 600.081 93.9475 599.763Z" fill="black" fill-opacity="0.24"/>
<path d="M81.2135 657.709H51.922L1.93537 707.695C-9.84492 600.081 36.0027 504.247 36.0027 504.247C36.3211 504.247 36.6394 504.565 36.9578 504.565C70.7068 522.395 85.9893 552.005 91.4019 581.614C91.4019 581.614 91.4019 581.614 91.4019 581.933C92.357 587.982 93.3122 594.032 93.6306 599.762C93.6306 600.081 93.6306 600.399 93.6306 600.399C94.2673 608.996 93.949 617.592 93.3122 625.552V625.87C93.3122 627.144 92.9938 628.417 92.9938 629.691C92.0387 640.198 88.218 649.431 88.218 657.39C88.8548 658.027 87.5812 657.709 81.2135 657.709Z" fill="black"/>
<path fill-rule="evenodd" clip-rule="evenodd" d="M327.786 755.991C392.557 732.967 461.359 713.486 518.338 722.065C577.629 730.991 623.507 759.394 629.348 801.394C634.773 840.401 583.896 882.856 546.407 923.899C511.51 962.105 479.579 1002.1 423.331 1026.94C359.54 1055.12 286.846 1072.96 228.673 1064.25C168.252 1055.22 131.839 1022.01 118.854 981.406C106.092 941.503 119.086 893.568 159.974 849.454C199.011 807.337 263.385 778.884 327.786 755.991Z" fill="#705EF9"/>
<circle cx="500.737" cy="701.234" r="84.5203" fill="#F2994A"/>
<g clip-path="url(#clip1)">
<rect width="90.155" height="90.155" transform="translate(468.865 646.025) rotate(15)" fill="#F2994A"/>
<path fill-rule="evenodd" clip-rule="evenodd" d="M532.959 693.721C534.191 684.826 527.371 680.127 518.091 677.044L520.956 664.977L513.615 663.237L510.822 674.985C508.893 674.523 506.913 674.096 504.938 673.669L507.752 661.845L500.41 660.1L497.544 672.162C495.947 671.816 494.375 671.477 492.854 671.113L492.862 671.075L482.734 668.666L480.872 676.509C480.872 676.509 486.322 677.694 486.208 677.772C489.182 678.48 489.738 680.436 489.666 681.996L486.404 695.74C486.608 695.789 486.872 695.862 487.169 695.973L486.392 695.791L481.818 715.046C481.464 715.949 480.56 717.31 478.478 716.821C478.555 716.926 473.142 715.554 473.142 715.554L469.6 723.975L479.159 726.246C480.935 726.671 482.678 727.118 484.39 727.535L481.496 739.737L488.833 741.477L491.699 729.411C493.705 729.927 495.651 730.405 497.554 730.859L494.697 742.874L502.038 744.614L504.932 732.437C517.449 734.662 526.827 733.604 530.654 722.265C533.739 713.137 530.338 707.925 523.728 704.579C528.504 703.424 532.07 700.236 532.959 693.721ZM516.485 717.372C514.328 726.494 498.957 721.745 493.978 720.568L497.823 704.402C502.802 705.588 518.748 707.863 516.485 717.372ZM518.489 693.751C516.518 702.049 503.726 697.984 499.584 697L503.065 682.343C507.207 683.326 520.545 685.097 518.489 693.751Z" fill="white"/>
</g>
<path d="M630.124 586.645C629.715 585.661 628.934 584.88 627.95 584.471C627.466 584.265 626.947 584.156 626.421 584.149H586.173C585.106 584.149 584.082 584.573 583.327 585.328C582.572 586.083 582.148 587.107 582.148 588.174C582.148 589.241 582.572 590.265 583.327 591.02C584.082 591.775 585.106 592.199 586.173 592.199H616.721L583.316 625.564C582.938 625.938 582.639 626.383 582.435 626.874C582.23 627.364 582.125 627.89 582.125 628.422C582.125 628.953 582.23 629.479 582.435 629.97C582.639 630.46 582.938 630.905 583.316 631.279C583.69 631.657 584.135 631.956 584.625 632.16C585.116 632.365 585.642 632.47 586.173 632.47C586.704 632.47 587.23 632.365 587.721 632.16C588.211 631.956 588.657 631.657 589.031 631.279L622.396 597.874V628.422C622.396 629.489 622.82 630.513 623.575 631.268C624.33 632.022 625.353 632.447 626.421 632.447C627.488 632.447 628.512 632.022 629.267 631.268C630.022 630.513 630.446 629.489 630.446 628.422V588.174C630.439 587.648 630.33 587.128 630.124 586.645V586.645Z" fill="#8684A5"/>
<path d="M226.55 950H222.55V954H226.55V950ZM226.55 857.413V853.413H222.55V857.413H226.55ZM285.408 859.662L283.938 863.382L283.989 863.402L284.041 863.421L285.408 859.662ZM295.328 865.614L292.596 868.535L292.596 868.535L295.328 865.614ZM301.677 874.873L297.982 876.405L298.005 876.46L298.029 876.514L301.677 874.873ZM301.677 898.019L298.029 896.378L298.02 896.399L298.01 896.421L301.677 898.019ZM295.196 907.013L292.51 904.049L292.486 904.071L292.463 904.092L295.196 907.013ZM285.408 912.965L286.803 916.714L285.408 912.965ZM245.728 915.082V911.082H241.728V915.082H245.728ZM245.728 950V954H249.728V950H245.728ZM245.728 873.947V869.947H241.728V873.947H245.728ZM245.728 899.21H241.728V903.21H245.728V899.21ZM280.779 895.771L278.109 892.792L278.083 892.816L278.057 892.839L280.779 895.771ZM280.779 877.518L278.002 880.397L278.055 880.448L278.109 880.496L280.779 877.518ZM230.55 950V857.413H222.55V950H230.55ZM226.55 861.413H272.975V853.413H226.55V861.413ZM272.975 861.413C277.021 861.413 280.66 862.086 283.938 863.382L286.879 855.942C282.573 854.24 277.924 853.413 272.975 853.413V861.413ZM284.041 863.421C287.466 864.667 290.295 866.383 292.596 868.535L298.061 862.693C294.895 859.731 291.11 857.479 286.775 855.903L284.041 863.421ZM292.596 868.535C294.894 870.685 296.691 873.291 297.982 876.405L305.372 873.34C303.665 869.223 301.229 865.657 298.061 862.693L292.596 868.535ZM298.029 876.514C299.363 879.478 300.058 882.791 300.058 886.512H308.058C308.058 881.767 307.165 877.321 305.325 873.231L298.029 876.514ZM300.058 886.512C300.058 890.132 299.368 893.403 298.029 896.378L305.325 899.661C307.16 895.581 308.058 891.181 308.058 886.512H300.058ZM298.01 896.421C296.741 899.332 294.918 901.867 292.51 904.049L297.882 909.977C301.117 907.045 303.615 903.584 305.344 899.618L298.01 896.421ZM292.463 904.092C290.147 906.259 287.349 907.975 284.013 909.216L286.803 916.714C291.051 915.134 294.778 912.882 297.929 909.934L292.463 904.092ZM284.013 909.216C280.715 910.444 277.049 911.082 272.975 911.082V919.082C277.896 919.082 282.518 918.309 286.803 916.714L284.013 909.216ZM272.975 911.082H245.728V919.082H272.975V911.082ZM241.728 915.082V950H249.728V915.082H241.728ZM245.728 946H226.55V954H245.728V946ZM270.859 869.947H245.728V877.947H270.859V869.947ZM241.728 873.947V899.21H249.728V873.947H241.728ZM245.728 903.21H270.859V895.21H245.728V903.21ZM270.859 903.21C275.769 903.21 280.131 901.831 283.501 898.702L278.057 892.839C276.489 894.295 274.238 895.21 270.859 895.21V903.21ZM283.449 898.749C286.946 895.614 288.615 891.44 288.615 886.644H280.615C280.615 889.431 279.726 891.342 278.109 892.792L283.449 898.749ZM288.615 886.644C288.615 881.848 286.946 877.675 283.449 874.54L278.109 880.496C279.726 881.946 280.615 883.857 280.615 886.644H288.615ZM283.555 874.638C280.191 871.394 275.81 869.947 270.859 869.947V877.947C274.197 877.947 276.429 878.88 278.002 880.397L283.555 874.638ZM313.272 950H309.272V954H313.272V950ZM313.272 937.302L310.605 934.322L309.272 935.514V937.302H313.272ZM349.778 904.633L352.445 907.613L352.462 907.599L352.478 907.584L349.778 904.633ZM358.64 894.713L362.032 896.833L362.046 896.809L362.06 896.786L358.64 894.713ZM356.523 875.666L359.084 872.593L359.084 872.593L356.523 875.666ZM332.186 874.343L330.531 870.702L330.515 870.709L330.499 870.717L332.186 874.343ZM319.753 883.073L316.686 885.64L319.35 888.823L322.432 886.043L319.753 883.073ZM309.569 870.905L306.89 867.934L304.027 870.515L306.501 873.472L309.569 870.905ZM326.631 859.926L328.154 863.625L328.154 863.625L326.631 859.926ZM358.772 858.339L357.483 862.126L357.531 862.142L357.579 862.157L358.772 858.339ZM369.485 864.027L366.898 867.077L366.92 867.096L366.943 867.114L369.485 864.027ZM376.363 873.021L372.716 874.662L372.733 874.7L372.75 874.737L376.363 873.021ZM374.908 899.21L371.461 897.182L371.461 897.182L374.908 899.21ZM361.153 914.685L363.81 917.674L363.815 917.67L361.153 914.685ZM338.535 934.789L335.878 931.8L328.014 938.789H338.535V934.789ZM380.067 934.789H384.067V930.789H380.067V934.789ZM380.067 950V954H384.067V950H380.067ZM317.272 950V937.302H309.272V950H317.272ZM315.94 940.283L352.445 907.613L347.11 901.652L310.605 934.322L315.94 940.283ZM352.478 907.584C356.733 903.691 359.989 900.1 362.032 896.833L355.248 892.593C353.763 894.968 351.111 897.991 347.078 901.681L352.478 907.584ZM362.06 896.786C364.163 893.317 365.285 889.609 365.285 885.718H357.285C357.285 888 356.643 890.289 355.219 892.639L362.06 896.786ZM365.285 885.718C365.285 880.45 363.151 875.982 359.084 872.593L353.963 878.739C356.245 880.641 357.285 882.875 357.285 885.718H365.285ZM359.084 872.593C355.083 869.259 350.166 867.698 344.619 867.698V875.698C348.596 875.698 351.615 876.782 353.963 878.739L359.084 872.593ZM344.619 867.698C339.66 867.698 334.949 868.694 330.531 870.702L333.841 877.985C337.183 876.466 340.761 875.698 344.619 875.698V867.698ZM330.499 870.717C326.224 872.705 321.747 875.888 317.074 880.103L322.432 886.043C326.753 882.146 330.565 879.509 333.873 877.97L330.499 870.717ZM322.821 880.506L312.636 868.337L306.501 873.472L316.686 885.64L322.821 880.506ZM312.247 873.875C317.325 869.297 322.629 865.9 328.154 863.625L325.108 856.228C318.641 858.89 312.57 862.813 306.89 867.934L312.247 873.875ZM328.154 863.625C333.678 861.351 339.333 860.223 345.148 860.223V852.223C338.266 852.223 331.577 853.564 325.108 856.228L328.154 863.625ZM345.148 860.223C349.703 860.223 353.803 860.873 357.483 862.126L360.061 854.553C355.452 852.984 350.469 852.223 345.148 852.223V860.223ZM357.579 862.157C361.382 863.346 364.457 865.006 366.898 867.077L372.073 860.977C368.694 858.109 364.627 855.978 359.965 854.521L357.579 862.157ZM366.943 867.114C369.468 869.194 371.382 871.698 372.716 874.662L380.011 871.379C378.17 867.289 375.499 863.797 372.028 860.939L366.943 867.114ZM372.75 874.737C374.155 877.695 374.876 880.94 374.876 884.528H382.876C382.876 879.827 381.922 875.401 379.976 871.305L372.75 874.737ZM374.876 884.528C374.876 889.116 373.739 893.308 371.461 897.182L378.356 901.238C381.368 896.117 382.876 890.521 382.876 884.528H374.876ZM371.461 897.182C369.12 901.16 364.885 905.996 358.49 911.7L363.815 917.67C370.471 911.734 375.406 906.253 378.356 901.238L371.461 897.182ZM358.495 911.695L335.878 931.8L341.192 937.779L363.81 917.674L358.495 911.695ZM338.535 938.789H380.067V930.789H338.535V938.789ZM376.067 934.789V950H384.067V934.789H376.067ZM380.067 946H313.272V954H380.067V946ZM392.4 950H388.4V954H392.4V950ZM392.4 857.413V853.413H388.4V857.413H392.4ZM451.258 859.662L449.788 863.382L449.839 863.402L449.891 863.421L451.258 859.662ZM461.178 865.614L458.446 868.535L458.446 868.535L461.178 865.614ZM467.527 874.873L463.832 876.405L463.855 876.46L463.879 876.514L467.527 874.873ZM467.527 898.019L463.879 896.378L463.87 896.399L463.86 896.421L467.527 898.019ZM461.046 907.013L458.36 904.049L458.336 904.071L458.313 904.092L461.046 907.013ZM451.258 912.965L452.653 916.714L451.258 912.965ZM411.578 915.082V911.082H407.578V915.082H411.578ZM411.578 950V954H415.578V950H411.578ZM411.578 873.947V869.947H407.578V873.947H411.578ZM411.578 899.21H407.578V903.21H411.578V899.21ZM446.629 895.771L443.959 892.792L443.933 892.816L443.907 892.839L446.629 895.771ZM446.629 877.518L443.852 880.397L443.905 880.448L443.959 880.496L446.629 877.518ZM396.4 950V857.413H388.4V950H396.4ZM392.4 861.413H438.825V853.413H392.4V861.413ZM438.825 861.413C442.871 861.413 446.51 862.086 449.788 863.382L452.729 855.942C448.423 854.24 443.774 853.413 438.825 853.413V861.413ZM449.891 863.421C453.316 864.667 456.145 866.383 458.446 868.535L463.911 862.693C460.745 859.731 456.96 857.479 452.625 855.903L449.891 863.421ZM458.446 868.535C460.744 870.685 462.541 873.291 463.832 876.405L471.222 873.34C469.515 869.223 467.079 865.657 463.911 862.693L458.446 868.535ZM463.879 876.514C465.213 879.478 465.908 882.791 465.908 886.512H473.908C473.908 881.767 473.015 877.321 471.175 873.231L463.879 876.514ZM465.908 886.512C465.908 890.132 465.218 893.403 463.879 896.378L471.175 899.661C473.01 895.581 473.908 891.181 473.908 886.512H465.908ZM463.86 896.421C462.591 899.332 460.768 901.867 458.36 904.049L463.732 909.977C466.967 907.045 469.465 903.584 471.194 899.618L463.86 896.421ZM458.313 904.092C455.997 906.259 453.199 907.975 449.863 909.216L452.653 916.714C456.901 915.134 460.628 912.882 463.779 909.934L458.313 904.092ZM449.863 909.216C446.565 910.444 442.899 911.082 438.825 911.082V919.082C443.746 919.082 448.368 918.309 452.653 916.714L449.863 909.216ZM438.825 911.082H411.578V919.082H438.825V911.082ZM407.578 915.082V950H415.578V915.082H407.578ZM411.578 946H392.4V954H411.578V946ZM436.709 869.947H411.578V877.947H436.709V869.947ZM407.578 873.947V899.21H415.578V873.947H407.578ZM411.578 903.21H436.709V895.21H411.578V903.21ZM436.709 903.21C441.619 903.21 445.981 901.831 449.351 898.702L443.907 892.839C442.339 894.295 440.088 895.21 436.709 895.21V903.21ZM449.299 898.749C452.796 895.614 454.465 891.44 454.465 886.644H446.465C446.465 889.431 445.576 891.342 443.959 892.792L449.299 898.749ZM454.465 886.644C454.465 881.848 452.796 877.675 449.299 874.54L443.959 880.496C445.576 881.946 446.465 883.857 446.465 886.644H454.465ZM449.405 874.638C446.041 871.394 441.66 869.947 436.709 869.947V877.947C440.047 877.947 442.279 878.88 443.852 880.397L449.405 874.638Z" fill="white"/>
<path d="M293.443 128H239.117L228.339 117.146L229.428 116.05H281.598V103.683L282.665 102.587L293.443 113.441V128ZM241.055 64.391L230.277 53.5373L231.366 52.441H265.202L257.015 64.391H241.055ZM265.42 103.574H246.237L281.794 50.95V40.0963L282.861 39L293.66 49.8537V61.8036L265.42 103.574Z" fill="white"/>
<rect x="177" y="1" width="170" height="170" rx="47" stroke="white" stroke-width="2"/>
<defs>
<clipPath id="clip0">
<rect width="78.6977" height="78.6977" fill="white" transform="translate(769.687 84.274) rotate(15)"/>
</clipPath>
<clipPath id="clip1">
<rect width="90.155" height="90.155" fill="white" transform="translate(468.865 646.025) rotate(15)"/>
</clipPath>
</defs>
</svg>
